<svg preserveAspectRatio="none" width="100%" height="100%" overflow="visible" style="display: block;" viewBox="0 0 27.5 27.5" fill="none" xmlns="http://www.w3.org/2000/svg">
<path id="Vector" d="M13.75 0C6.16 0 0 6.16 0 13.75C0 21.34 6.16 27.5 13.75 27.5C21.34 27.5 27.5 21.34 27.5 13.75C27.5 6.16 21.34 0 13.75 0ZM13.75 5.5C16.4037 5.5 18.5625 7.65875 18.5625 10.3125C18.5625 12.9662 16.4037 15.125 13.75 15.125C11.0962 15.125 8.9375 12.9662 8.9375 10.3125C8.9375 7.65875 11.0962 5.5 13.75 5.5ZM13.75 24.75C10.9587 24.75 7.65875 23.6225 5.3075 20.79C7.71626 18.901 10.6889 17.8745 13.75 17.8745C16.8111 17.8745 19.7837 18.901 22.1925 20.79C19.8412 23.6225 16.5412 24.75 13.75 24.75Z" fill="var(--fill-0, #5D0F08)"/>
</svg>
