<svg preserveAspectRatio="none" width="100%" height="100%" overflow="visible" style="display: block;" viewBox="0 0 130 130" fill="none" xmlns="http://www.w3.org/2000/svg">
<g id="Group">
<path id="Vector" d="M130 0H0V130H130V0Z" fill="var(--fill-0, white)"/>
<path id="Vector_2" d="M48.0065 7.64706C49.1797 7.64706 50.1307 6.69603 50.1307 5.52288C50.1307 4.34972 49.1797 3.39869 48.0065 3.39869C46.8334 3.39869 45.8824 4.34972 45.8824 5.52288C45.8824 6.69603 46.8334 7.64706 48.0065 7.64706Z" fill="var(--fill-0, #5D0F08)"/>
<path id="Vector_3" d="M56.5033 7.64706C57.6764 7.64706 58.6275 6.69603 58.6275 5.52288C58.6275 4.34972 57.6764 3.39869 56.5033 3.39869C55.3301 3.39869 54.3791 4.34972 54.3791 5.52288C54.3791 6.69603 55.3301 7.64706 56.5033 7.64706Z" fill="var(--fill-0, #5D0F08)"/>
<path id="Vector_4" d="M60.7516 7.64706C61.9248 7.64706 62.8758 6.69603 62.8758 5.52288C62.8758 4.34972 61.9248 3.39869 60.7516 3.39869C59.5785 3.39869 58.6274 4.34972 58.6274 5.52288C58.6274 6.69603 59.5785 7.64706 60.7516 7.64706Z" fill="var(--fill-0, #5D0F08)"/>
<path id="Vector_5" d="M65 7.64706C66.1732 7.64706 67.1242 6.69603 67.1242 5.52288C67.1242 4.34972 66.1732 3.39869 65 3.39869C63.8268 3.39869 62.8758 4.34972 62.8758 5.52288C62.8758 6.69603 63.8268 7.64706 65 7.64706Z" fill="var(--fill-0, #5D0F08)"/>
<path id="Vector_6" d="M69.2484 7.64706C70.4215 7.64706 71.3725 6.69603 71.3725 5.52288C71.3725 4.34972 70.4215 3.39869 69.2484 3.39869C68.0752 3.39869 67.1242 4.34972 67.1242 5.52288C67.1242 6.69603 68.0752 7.64706 69.2484 7.64706Z" fill="var(--fill-0, #5D0F08)"/>
<path id="Vector_7" d="M81.9935 7.64706C83.1666 7.64706 84.1176 6.69603 84.1176 5.52288C84.1176 4.34972 83.1666 3.39869 81.9935 3.39869C80.8203 3.39869 79.8693 4.34972 79.8693 5.52288C79.8693 6.69603 80.8203 7.64706 81.9935 7.64706Z" fill="var(--fill-0, #5D0F08)"/>
<path id="Vector_8" d="M86.2418 7.64706C87.415 7.64706 88.366 6.69603 88.366 5.52288C88.366 4.34972 87.415 3.39869 86.2418 3.39869C85.0687 3.39869 84.1177 4.34972 84.1177 5.52288C84.1177 6.69603 85.0687 7.64706 86.2418 7.64706Z" fill="var(--fill-0, #5D0F08)"/>
<path id="Vector_9" d="M90.4902 7.64706C91.6633 7.64706 92.6144 6.69603 92.6144 5.52288C92.6144 4.34972 91.6633 3.39869 90.4902 3.39869C89.317 3.39869 88.366 4.34972 88.366 5.52288C88.366 6.69603 89.317 7.64706 90.4902 7.64706Z" fill="var(--fill-0, #5D0F08)"/>
<path id="Vector_10" d="M48.0065 11.8954C49.1797 11.8954 50.1307 10.9444 50.1307 9.77124C50.1307 8.59809 49.1797 7.64706 48.0065 7.64706C46.8334 7.64706 45.8824 8.59809 45.8824 9.77124C45.8824 10.9444 46.8334 11.8954 48.0065 11.8954Z" fill="var(--fill-0, #5D0F08)"/>
<path id="Vector_11" d="M52.2549 11.8954C53.4281 11.8954 54.3791 10.9444 54.3791 9.77124C54.3791 8.59809 53.4281 7.64706 52.2549 7.64706C51.0817 7.64706 50.1307 8.59809 50.1307 9.77124C50.1307 10.9444 51.0817 11.8954 52.2549 11.8954Z" fill="var(--fill-0, #5D0F08)"/>
<path id="Vector_12" d="M56.5033 11.8954C57.6764 11.8954 58.6275 10.9444 58.6275 9.77124C58.6275 8.59809 57.6764 7.64706 56.5033 7.64706C55.3301 7.64706 54.3791 8.59809 54.3791 9.77124C54.3791 10.9444 55.3301 11.8954 56.5033 11.8954Z" fill="var(--fill-0, #5D0F08)"/>
<path id="Vector_13" d="M60.7516 11.8954C61.9248 11.8954 62.8758 10.9444 62.8758 9.77124C62.8758 8.59809 61.9248 7.64706 60.7516 7.64706C59.5785 7.64706 58.6274 8.59809 58.6274 9.77124C58.6274 10.9444 59.5785 11.8954 60.7516 11.8954Z" fill="var(--fill-0, #5D0F08)"/>
<path id="Vector_14" d="M65 11.8954C66.1732 11.8954 67.1242 10.9444 67.1242 9.77124C67.1242 8.59809 66.1732 7.64706 65 7.64706C63.8268 7.64706 62.8758 8.59809 62.8758 9.77124C62.8758 10.9444 63.8268 11.8954 65 11.8954Z" fill="var(--fill-0, #5D0F08)"/>
<path id="Vector_15" d="M69.2484 11.8954C70.4215 11.8954 71.3725 10.9444 71.3725 9.77124C71.3725 8.59809 70.4215 7.64706 69.2484 7.64706C68.0752 7.64706 67.1242 8.59809 67.1242 9.77124C67.1242 10.9444 68.0752 11.8954 69.2484 11.8954Z" fill="var(--fill-0, #5D0F08)"/>
<path id="Vector_16" d="M73.4967 11.8954C74.6699 11.8954 75.6209 10.9444 75.6209 9.77124C75.6209 8.59809 74.6699 7.64706 73.4967 7.64706C72.3236 7.64706 71.3726 8.59809 71.3726 9.77124C71.3726 10.9444 72.3236 11.8954 73.4967 11.8954Z" fill="var(--fill-0, #5D0F08)"/>
<path id="Vector_17" d="M77.7451 11.8954C78.9182 11.8954 79.8693 10.9444 79.8693 9.77124C79.8693 8.59809 78.9182 7.64706 77.7451 7.64706C76.5719 7.64706 75.6209 8.59809 75.6209 9.77124C75.6209 10.9444 76.5719 11.8954 77.7451 11.8954Z" fill="var(--fill-0, #5D0F08)"/>
<path id="Vector_18" d="M86.2418 11.8954C87.415 11.8954 88.366 10.9444 88.366 9.77124C88.366 8.59809 87.415 7.64706 86.2418 7.64706C85.0687 7.64706 84.1177 8.59809 84.1177 9.77124C84.1177 10.9444 85.0687 11.8954 86.2418 11.8954Z" fill="var(--fill-0, #5D0F08)"/>
<path id="Vector_19" d="M39.5098 16.1438C40.683 16.1438 41.634 15.1928 41.634 14.0196C41.634 12.8465 40.683 11.8954 39.5098 11.8954C38.3366 11.8954 37.3856 12.8465 37.3856 14.0196C37.3856 15.1928 38.3366 16.1438 39.5098 16.1438Z" fill="var(--fill-0, #5D0F08)"/>
<path id="Vector_20" d="M43.7582 16.1438C44.9313 16.1438 45.8824 15.1928 45.8824 14.0196C45.8824 12.8465 44.9313 11.8954 43.7582 11.8954C42.585 11.8954 41.634 12.8465 41.634 14.0196C41.634 15.1928 42.585 16.1438 43.7582 16.1438Z" fill="var(--fill-0, #5D0F08)"/>
<path id="Vector_21" d="M48.0065 16.1438C49.1797 16.1438 50.1307 15.1928 50.1307 14.0196C50.1307 12.8465 49.1797 11.8954 48.0065 11.8954C46.8334 11.8954 45.8824 12.8465 45.8824 14.0196C45.8824 15.1928 46.8334 16.1438 48.0065 16.1438Z" fill="var(--fill-0, #5D0F08)"/>
<path id="Vector_22" d="M52.2549 16.1438C53.4281 16.1438 54.3791 15.1928 54.3791 14.0196C54.3791 12.8465 53.4281 11.8954 52.2549 11.8954C51.0817 11.8954 50.1307 12.8465 50.1307 14.0196C50.1307 15.1928 51.0817 16.1438 52.2549 16.1438Z" fill="var(--fill-0, #5D0F08)"/>
<path id="Vector_23" d="M60.7516 16.1438C61.9248 16.1438 62.8758 15.1928 62.8758 14.0196C62.8758 12.8465 61.9248 11.8954 60.7516 11.8954C59.5785 11.8954 58.6274 12.8465 58.6274 14.0196C58.6274 15.1928 59.5785 16.1438 60.7516 16.1438Z" fill="var(--fill-0, #5D0F08)"/>
<path id="Vector_24" d="M69.2484 16.1438C70.4215 16.1438 71.3725 15.1928 71.3725 14.0196C71.3725 12.8465 70.4215 11.8954 69.2484 11.8954C68.0752 11.8954 67.1242 12.8465 67.1242 14.0196C67.1242 15.1928 68.0752 16.1438 69.2484 16.1438Z" fill="var(--fill-0, #5D0F08)"/>
<path id="Vector_25" d="M81.9935 16.1438C83.1666 16.1438 84.1176 15.1928 84.1176 14.0196C84.1176 12.8465 83.1666 11.8954 81.9935 11.8954C80.8203 11.8954 79.8693 12.8465 79.8693 14.0196C79.8693 15.1928 80.8203 16.1438 81.9935 16.1438Z" fill="var(--fill-0, #5D0F08)"/>
<path id="Vector_26" d="M86.2418 16.1438C87.415 16.1438 88.366 15.1928 88.366 14.0196C88.366 12.8465 87.415 11.8954 86.2418 11.8954C85.0687 11.8954 84.1177 12.8465 84.1177 14.0196C84.1177 15.1928 85.0687 16.1438 86.2418 16.1438Z" fill="var(--fill-0, #5D0F08)"/>
<path id="Vector_27" d="M39.5098 20.3922C40.683 20.3922 41.634 19.4411 41.634 18.268C41.634 17.0948 40.683 16.1438 39.5098 16.1438C38.3366 16.1438 37.3856 17.0948 37.3856 18.268C37.3856 19.4411 38.3366 20.3922 39.5098 20.3922Z" fill="var(--fill-0, #5D0F08)"/>
<path id="Vector_28" d="M65 20.3922C66.1732 20.3922 67.1242 19.4411 67.1242 18.268C67.1242 17.0948 66.1732 16.1438 65 16.1438C63.8268 16.1438 62.8758 17.0948 62.8758 18.268C62.8758 19.4411 63.8268 20.3922 65 20.3922Z" fill="var(--fill-0, #5D0F08)"/>
<path id="Vector_29" d="M69.2484 20.3922C70.4215 20.3922 71.3725 19.4411 71.3725 18.268C71.3725 17.0948 70.4215 16.1438 69.2484 16.1438C68.0752 16.1438 67.1242 17.0948 67.1242 18.268C67.1242 19.4411 68.0752 20.3922 69.2484 20.3922Z" fill="var(--fill-0, #5D0F08)"/>
<path id="Vector_30" d="M77.7451 20.3922C78.9182 20.3922 79.8693 19.4411 79.8693 18.268C79.8693 17.0948 78.9182 16.1438 77.7451 16.1438C76.5719 16.1438 75.6209 17.0948 75.6209 18.268C75.6209 19.4411 76.5719 20.3922 77.7451 20.3922Z" fill="var(--fill-0, #5D0F08)"/>
<path id="Vector_31" d="M81.9935 20.3922C83.1666 20.3922 84.1176 19.4411 84.1176 18.268C84.1176 17.0948 83.1666 16.1438 81.9935 16.1438C80.8203 16.1438 79.8693 17.0948 79.8693 18.268C79.8693 19.4411 80.8203 20.3922 81.9935 20.3922Z" fill="var(--fill-0, #5D0F08)"/>
<path id="Vector_32" d="M39.5098 24.6405C40.683 24.6405 41.634 23.6895 41.634 22.5163C41.634 21.3432 40.683 20.3922 39.5098 20.3922C38.3366 20.3922 37.3856 21.3432 37.3856 22.5163C37.3856 23.6895 38.3366 24.6405 39.5098 24.6405Z" fill="var(--fill-0, #5D0F08)"/>
<path id="Vector_33" d="M43.7582 24.6405C44.9313 24.6405 45.8824 23.6895 45.8824 22.5163C45.8824 21.3432 44.9313 20.3922 43.7582 20.3922C42.585 20.3922 41.634 21.3432 41.634 22.5163C41.634 23.6895 42.585 24.6405 43.7582 24.6405Z" fill="var(--fill-0, #5D0F08)"/>
<path id="Vector_34" d="M52.2549 24.6405C53.4281 24.6405 54.3791 23.6895 54.3791 22.5163C54.3791 21.3432 53.4281 20.3922 52.2549 20.3922C51.0817 20.3922 50.1307 21.3432 50.1307 22.5163C50.1307 23.6895 51.0817 24.6405 52.2549 24.6405Z" fill="var(--fill-0, #5D0F08)"/>
<path id="Vector_35" d="M69.2484 24.6405C70.4215 24.6405 71.3725 23.6895 71.3725 22.5163C71.3725 21.3432 70.4215 20.3922 69.2484 20.3922C68.0752 20.3922 67.1242 21.3432 67.1242 22.5163C67.1242 23.6895 68.0752 24.6405 69.2484 24.6405Z" fill="var(--fill-0, #5D0F08)"/>
<path id="Vector_36" d="M73.4967 24.6405C74.6699 24.6405 75.6209 23.6895 75.6209 22.5163C75.6209 21.3432 74.6699 20.3922 73.4967 20.3922C72.3236 20.3922 71.3726 21.3432 71.3726 22.5163C71.3726 23.6895 72.3236 24.6405 73.4967 24.6405Z" fill="var(--fill-0, #5D0F08)"/>
<path id="Vector_37" d="M86.2418 24.6405C87.415 24.6405 88.366 23.6895 88.366 22.5163C88.366 21.3432 87.415 20.3922 86.2418 20.3922C85.0687 20.3922 84.1177 21.3432 84.1177 22.5163C84.1177 23.6895 85.0687 24.6405 86.2418 24.6405Z" fill="var(--fill-0, #5D0F08)"/>
<path id="Vector_38" d="M39.5098 28.8889C40.683 28.8889 41.634 27.9379 41.634 26.7647C41.634 25.5916 40.683 24.6405 39.5098 24.6405C38.3366 24.6405 37.3856 25.5916 37.3856 26.7647C37.3856 27.9379 38.3366 28.8889 39.5098 28.8889Z" fill="var(--fill-0, #5D0F08)"/>
<path id="Vector_39" d="M48.0065 28.8889C49.1797 28.8889 50.1307 27.9379 50.1307 26.7647C50.1307 25.5916 49.1797 24.6405 48.0065 24.6405C46.8334 24.6405 45.8824 25.5916 45.8824 26.7647C45.8824 27.9379 46.8334 28.8889 48.0065 28.8889Z" fill="var(--fill-0, #5D0F08)"/>
<path id="Vector_40" d="M56.5033 28.8889C57.6764 28.8889 58.6275 27.9379 58.6275 26.7647C58.6275 25.5916 57.6764 24.6405 56.5033 24.6405C55.3301 24.6405 54.3791 25.5916 54.3791 26.7647C54.3791 27.9379 55.3301 28.8889 56.5033 28.8889Z" fill="var(--fill-0, #5D0F08)"/>
<path id="Vector_41" d="M77.7451 28.8889C78.9182 28.8889 79.8693 27.9379 79.8693 26.7647C79.8693 25.5916 78.9182 24.6405 77.7451 24.6405C76.5719 24.6405 75.6209 25.5916 75.6209 26.7647C75.6209 27.9379 76.5719 28.8889 77.7451 28.8889Z" fill="var(--fill-0, #5D0F08)"/>
<path id="Vector_42" d="M90.4902 28.8889C91.6633 28.8889 92.6144 27.9379 92.6144 26.7647C92.6144 25.5916 91.6633 24.6405 90.4902 24.6405C89.317 24.6405 88.366 25.5916 88.366 26.7647C88.366 27.9379 89.317 28.8889 90.4902 28.8889Z" fill="var(--fill-0, #5D0F08)"/>
<path id="Vector_43" d="M39.5098 33.1373C40.683 33.1373 41.634 32.1862 41.634 31.0131C41.634 29.8399 40.683 28.8889 39.5098 28.8889C38.3366 28.8889 37.3856 29.8399 37.3856 31.0131C37.3856 32.1862 38.3366 33.1373 39.5098 33.1373Z" fill="var(--fill-0, #5D0F08)"/>
<path id="Vector_44" d="M48.0065 33.1373C49.1797 33.1373 50.1307 32.1862 50.1307 31.0131C50.1307 29.8399 49.1797 28.8889 48.0065 28.8889C46.8334 28.8889 45.8824 29.8399 45.8824 31.0131C45.8824 32.1862 46.8334 33.1373 48.0065 33.1373Z" fill="var(--fill-0, #5D0F08)"/>
<path id="Vector_45" d="M56.5033 33.1373C57.6764 33.1373 58.6275 32.1862 58.6275 31.0131C58.6275 29.8399 57.6764 28.8889 56.5033 28.8889C55.3301 28.8889 54.3791 29.8399 54.3791 31.0131C54.3791 32.1862 55.3301 33.1373 56.5033 33.1373Z" fill="var(--fill-0, #5D0F08)"/>
<path id="Vector_46" d="M65 33.1373C66.1732 33.1373 67.1242 32.1862 67.1242 31.0131C67.1242 29.8399 66.1732 28.8889 65 28.8889C63.8268 28.8889 62.8758 29.8399 62.8758 31.0131C62.8758 32.1862 63.8268 33.1373 65 33.1373Z" fill="var(--fill-0, #5D0F08)"/>
<path id="Vector_47" d="M73.4967 33.1373C74.6699 33.1373 75.6209 32.1862 75.6209 31.0131C75.6209 29.8399 74.6699 28.8889 73.4967 28.8889C72.3236 28.8889 71.3726 29.8399 71.3726 31.0131C71.3726 32.1862 72.3236 33.1373 73.4967 33.1373Z" fill="var(--fill-0, #5D0F08)"/>
<path id="Vector_48" d="M81.9935 33.1373C83.1666 33.1373 84.1176 32.1862 84.1176 31.0131C84.1176 29.8399 83.1666 28.8889 81.9935 28.8889C80.8203 28.8889 79.8693 29.8399 79.8693 31.0131C79.8693 32.1862 80.8203 33.1373 81.9935 33.1373Z" fill="var(--fill-0, #5D0F08)"/>
<path id="Vector_49" d="M90.4902 33.1373C91.6633 33.1373 92.6144 32.1862 92.6144 31.0131C92.6144 29.8399 91.6633 28.8889 90.4902 28.8889C89.317 28.8889 88.366 29.8399 88.366 31.0131C88.366 32.1862 89.317 33.1373 90.4902 33.1373Z" fill="var(--fill-0, #5D0F08)"/>
<path id="Vector_50" d="M39.5098 37.3856C40.683 37.3856 41.634 36.4346 41.634 35.2614C41.634 34.0883 40.683 33.1373 39.5098 33.1373C38.3366 33.1373 37.3856 34.0883 37.3856 35.2614C37.3856 36.4346 38.3366 37.3856 39.5098 37.3856Z" fill="var(--fill-0, #5D0F08)"/>
<path id="Vector_51" d="M43.7582 37.3856C44.9313 37.3856 45.8824 36.4346 45.8824 35.2614C45.8824 34.0883 44.9313 33.1373 43.7582 33.1373C42.585 33.1373 41.634 34.0883 41.634 35.2614C41.634 36.4346 42.585 37.3856 43.7582 37.3856Z" fill="var(--fill-0, #5D0F08)"/>
<path id="Vector_52" d="M48.0065 37.3856C49.1797 37.3856 50.1307 36.4346 50.1307 35.2614C50.1307 34.0883 49.1797 33.1373 48.0065 33.1373C46.8334 33.1373 45.8824 34.0883 45.8824 35.2614C45.8824 36.4346 46.8334 37.3856 48.0065 37.3856Z" fill="var(--fill-0, #5D0F08)"/>
<path id="Vector_53" d="M52.2549 37.3856C53.4281 37.3856 54.3791 36.4346 54.3791 35.2614C54.3791 34.0883 53.4281 33.1373 52.2549 33.1373C51.0817 33.1373 50.1307 34.0883 50.1307 35.2614C50.1307 36.4346 51.0817 37.3856 52.2549 37.3856Z" fill="var(--fill-0, #5D0F08)"/>
<path id="Vector_54" d="M56.5033 37.3856C57.6764 37.3856 58.6275 36.4346 58.6275 35.2614C58.6275 34.0883 57.6764 33.1373 56.5033 33.1373C55.3301 33.1373 54.3791 34.0883 54.3791 35.2614C54.3791 36.4346 55.3301 37.3856 56.5033 37.3856Z" fill="var(--fill-0, #5D0F08)"/>
<path id="Vector_55" d="M65 37.3856C66.1732 37.3856 67.1242 36.4346 67.1242 35.2614C67.1242 34.0883 66.1732 33.1373 65 33.1373C63.8268 33.1373 62.8758 34.0883 62.8758 35.2614C62.8758 36.4346 63.8268 37.3856 65 37.3856Z" fill="var(--fill-0, #5D0F08)"/>
<path id="Vector_56" d="M73.4967 37.3856C74.6699 37.3856 75.6209 36.4346 75.6209 35.2614C75.6209 34.0883 74.6699 33.1373 73.4967 33.1373C72.3236 33.1373 71.3726 34.0883 71.3726 35.2614C71.3726 36.4346 72.3236 37.3856 73.4967 37.3856Z" fill="var(--fill-0, #5D0F08)"/>
<path id="Vector_57" d="M77.7451 37.3856C78.9182 37.3856 79.8693 36.4346 79.8693 35.2614C79.8693 34.0883 78.9182 33.1373 77.7451 33.1373C76.5719 33.1373 75.6209 34.0883 75.6209 35.2614C75.6209 36.4346 76.5719 37.3856 77.7451 37.3856Z" fill="var(--fill-0, #5D0F08)"/>
<path id="Vector_58" d="M81.9935 37.3856C83.1666 37.3856 84.1176 36.4346 84.1176 35.2614C84.1176 34.0883 83.1666 33.1373 81.9935 33.1373C80.8203 33.1373 79.8693 34.0883 79.8693 35.2614C79.8693 36.4346 80.8203 37.3856 81.9935 37.3856Z" fill="var(--fill-0, #5D0F08)"/>
<path id="Vector_59" d="M86.2418 37.3856C87.415 37.3856 88.366 36.4346 88.366 35.2614C88.366 34.0883 87.415 33.1373 86.2418 33.1373C85.0687 33.1373 84.1177 34.0883 84.1177 35.2614C84.1177 36.4346 85.0687 37.3856 86.2418 37.3856Z" fill="var(--fill-0, #5D0F08)"/>
<path id="Vector_60" d="M90.4902 37.3856C91.6633 37.3856 92.6144 36.4346 92.6144 35.2614C92.6144 34.0883 91.6633 33.1373 90.4902 33.1373C89.317 33.1373 88.366 34.0883 88.366 35.2614C88.366 36.4346 89.317 37.3856 90.4902 37.3856Z" fill="var(--fill-0, #5D0F08)"/>
<path id="Vector_61" d="M5.52288 41.634C6.69603 41.634 7.64706 40.683 7.64706 39.5098C7.64706 38.3366 6.69603 37.3856 5.52288 37.3856C4.34972 37.3856 3.39869 38.3366 3.39869 39.5098C3.39869 40.683 4.34972 41.634 5.52288 41.634Z" fill="var(--fill-0, #5D0F08)"/>
<path id="Vector_62" d="M14.0196 41.634C15.1928 41.634 16.1438 40.683 16.1438 39.5098C16.1438 38.3366 15.1928 37.3856 14.0196 37.3856C12.8465 37.3856 11.8954 38.3366 11.8954 39.5098C11.8954 40.683 12.8465 41.634 14.0196 41.634Z" fill="var(--fill-0, #5D0F08)"/>
<path id="Vector_63" d="M18.268 41.634C19.4411 41.634 20.3922 40.683 20.3922 39.5098C20.3922 38.3366 19.4411 37.3856 18.268 37.3856C17.0948 37.3856 16.1438 38.3366 16.1438 39.5098C16.1438 40.683 17.0948 41.634 18.268 41.634Z" fill="var(--fill-0, #5D0F08)"/>
<path id="Vector_64" d="M22.5163 41.634C23.6895 41.634 24.6405 40.683 24.6405 39.5098C24.6405 38.3366 23.6895 37.3856 22.5163 37.3856C21.3432 37.3856 20.3922 38.3366 20.3922 39.5098C20.3922 40.683 21.3432 41.634 22.5163 41.634Z" fill="var(--fill-0, #5D0F08)"/>
<path id="Vector_65" d="M26.7647 41.634C27.9379 41.634 28.8889 40.683 28.8889 39.5098C28.8889 38.3366 27.9379 37.3856 26.7647 37.3856C25.5916 37.3856 24.6405 38.3366 24.6405 39.5098C24.6405 40.683 25.5916 41.634 26.7647 41.634Z" fill="var(--fill-0, #5D0F08)"/>
<path id="Vector_66" d="M31.0131 41.634C32.1862 41.634 33.1373 40.683 33.1373 39.5098C33.1373 38.3366 32.1862 37.3856 31.0131 37.3856C29.8399 37.3856 28.8889 38.3366 28.8889 39.5098C28.8889 40.683 29.8399 41.634 31.0131 41.634Z" fill="var(--fill-0, #5D0F08)"/>
<path id="Vector_67" d="M43.7582 41.634C44.9313 41.634 45.8824 40.683 45.8824 39.5098C45.8824 38.3366 44.9313 37.3856 43.7582 37.3856C42.585 37.3856 41.634 38.3366 41.634 39.5098C41.634 40.683 42.585 41.634 43.7582 41.634Z" fill="var(--fill-0, #5D0F08)"/>
<path id="Vector_68" d="M52.2549 41.634C53.4281 41.634 54.3791 40.683 54.3791 39.5098C54.3791 38.3366 53.4281 37.3856 52.2549 37.3856C51.0817 37.3856 50.1307 38.3366 50.1307 39.5098C50.1307 40.683 51.0817 41.634 52.2549 41.634Z" fill="var(--fill-0, #5D0F08)"/>
<path id="Vector_69" d="M73.4967 41.634C74.6699 41.634 75.6209 40.683 75.6209 39.5098C75.6209 38.3366 74.6699 37.3856 73.4967 37.3856C72.3236 37.3856 71.3726 38.3366 71.3726 39.5098C71.3726 40.683 72.3236 41.634 73.4967 41.634Z" fill="var(--fill-0, #5D0F08)"/>
<path id="Vector_70" d="M77.7451 41.634C78.9182 41.634 79.8693 40.683 79.8693 39.5098C79.8693 38.3366 78.9182 37.3856 77.7451 37.3856C76.5719 37.3856 75.6209 38.3366 75.6209 39.5098C75.6209 40.683 76.5719 41.634 77.7451 41.634Z" fill="var(--fill-0, #5D0F08)"/>
<path id="Vector_71" d="M90.4902 41.634C91.6633 41.634 92.6144 40.683 92.6144 39.5098C92.6144 38.3366 91.6633 37.3856 90.4902 37.3856C89.317 37.3856 88.366 38.3366 88.366 39.5098C88.366 40.683 89.317 41.634 90.4902 41.634Z" fill="var(--fill-0, #5D0F08)"/>
<path id="Vector_72" d="M98.9869 41.634C100.16 41.634 101.111 40.683 101.111 39.5098C101.111 38.3366 100.16 37.3856 98.9869 37.3856C97.8138 37.3856 96.8627 38.3366 96.8627 39.5098C96.8627 40.683 97.8138 41.634 98.9869 41.634Z" fill="var(--fill-0, #5D0F08)"/>
<path id="Vector_73" d="M103.235 41.634C104.408 41.634 105.359 40.683 105.359 39.5098C105.359 38.3366 104.408 37.3856 103.235 37.3856C102.062 37.3856 101.111 38.3366 101.111 39.5098C101.111 40.683 102.062 41.634 103.235 41.634Z" fill="var(--fill-0, #5D0F08)"/>
<path id="Vector_74" d="M107.484 41.634C108.657 41.634 109.608 40.683 109.608 39.5098C109.608 38.3366 108.657 37.3856 107.484 37.3856C106.311 37.3856 105.359 38.3366 105.359 39.5098C105.359 40.683 106.311 41.634 107.484 41.634Z" fill="var(--fill-0, #5D0F08)"/>
<path id="Vector_75" d="M111.732 41.634C112.905 41.634 113.856 40.683 113.856 39.5098C113.856 38.3366 112.905 37.3856 111.732 37.3856C110.559 37.3856 109.608 38.3366 109.608 39.5098C109.608 40.683 110.559 41.634 111.732 41.634Z" fill="var(--fill-0, #5D0F08)"/>
<path id="Vector_76" d="M115.98 41.634C117.154 41.634 118.105 40.683 118.105 39.5098C118.105 38.3366 117.154 37.3856 115.98 37.3856C114.807 37.3856 113.856 38.3366 113.856 39.5098C113.856 40.683 114.807 41.634 115.98 41.634Z" fill="var(--fill-0, #5D0F08)"/>
<path id="Vector_77" d="M9.77124 45.8824C10.9444 45.8824 11.8954 44.9313 11.8954 43.7582C11.8954 42.585 10.9444 41.634 9.77124 41.634C8.59809 41.634 7.64706 42.585 7.64706 43.7582C7.64706 44.9313 8.59809 45.8824 9.77124 45.8824Z" fill="var(--fill-0, #5D0F08)"/>
<path id="Vector_78" d="M26.7647 45.8824C27.9379 45.8824 28.8889 44.9313 28.8889 43.7582C28.8889 42.585 27.9379 41.634 26.7647 41.634C25.5916 41.634 24.6405 42.585 24.6405 43.7582C24.6405 44.9313 25.5916 45.8824 26.7647 45.8824Z" fill="var(--fill-0, #5D0F08)"/>
<path id="Vector_79" d="M35.2614 45.8824C36.4346 45.8824 37.3856 44.9313 37.3856 43.7582C37.3856 42.585 36.4346 41.634 35.2614 41.634C34.0883 41.634 33.1373 42.585 33.1373 43.7582C33.1373 44.9313 34.0883 45.8824 35.2614 45.8824Z" fill="var(--fill-0, #5D0F08)"/>
<path id="Vector_80" d="M60.7516 45.8824C61.9248 45.8824 62.8758 44.9313 62.8758 43.7582C62.8758 42.585 61.9248 41.634 60.7516 41.634C59.5785 41.634 58.6274 42.585 58.6274 43.7582C58.6274 44.9313 59.5785 45.8824 60.7516 45.8824Z" fill="var(--fill-0, #5D0F08)"/>
<path id="Vector_81" d="M65 45.8824C66.1732 45.8824 67.1242 44.9313 67.1242 43.7582C67.1242 42.585 66.1732 41.634 65 41.634C63.8268 41.634 62.8758 42.585 62.8758 43.7582C62.8758 44.9313 63.8268 45.8824 65 45.8824Z" fill="var(--fill-0, #5D0F08)"/>
<path id="Vector_82" d="M69.2484 45.8824C70.4215 45.8824 71.3725 44.9313 71.3725 43.7582C71.3725 42.585 70.4215 41.634 69.2484 41.634C68.0752 41.634 67.1242 42.585 67.1242 43.7582C67.1242 44.9313 68.0752 45.8824 69.2484 45.8824Z" fill="var(--fill-0, #5D0F08)"/>
<path id="Vector_83" d="M90.4902 45.8824C91.6633 45.8824 92.6144 44.9313 92.6144 43.7582C92.6144 42.585 91.6633 41.634 90.4902 41.634C89.317 41.634 88.366 42.585 88.366 43.7582C88.366 44.9313 89.317 45.8824 90.4902 45.8824Z" fill="var(--fill-0, #5D0F08)"/>
<path id="Vector_84" d="M98.9869 45.8824C100.16 45.8824 101.111 44.9313 101.111 43.7582C101.111 42.585 100.16 41.634 98.9869 41.634C97.8138 41.634 96.8627 42.585 96.8627 43.7582C96.8627 44.9313 97.8138 45.8824 98.9869 45.8824Z" fill="var(--fill-0, #5D0F08)"/>
<path id="Vector_85" d="M107.484 45.8824C108.657 45.8824 109.608 44.9313 109.608 43.7582C109.608 42.585 108.657 41.634 107.484 41.634C106.311 41.634 105.359 42.585 105.359 43.7582C105.359 44.9313 106.311 45.8824 107.484 45.8824Z" fill="var(--fill-0, #5D0F08)"/>
<path id="Vector_86" d="M111.732 45.8824C112.905 45.8824 113.856 44.9313 113.856 43.7582C113.856 42.585 112.905 41.634 111.732 41.634C110.559 41.634 109.608 42.585 109.608 43.7582C109.608 44.9313 110.559 45.8824 111.732 45.8824Z" fill="var(--fill-0, #5D0F08)"/>
<path id="Vector_87" d="M120.229 45.8824C121.402 45.8824 122.353 44.9313 122.353 43.7582C122.353 42.585 121.402 41.634 120.229 41.634C119.056 41.634 118.105 42.585 118.105 43.7582C118.105 44.9313 119.056 45.8824 120.229 45.8824Z" fill="var(--fill-0, #5D0F08)"/>
<path id="Vector_88" d="M5.52288 50.1307C6.69603 50.1307 7.64706 49.1797 7.64706 48.0065C7.64706 46.8334 6.69603 45.8824 5.52288 45.8824C4.34972 45.8824 3.39869 46.8334 3.39869 48.0065C3.39869 49.1797 4.34972 50.1307 5.52288 50.1307Z" fill="var(--fill-0, #5D0F08)"/>
<path id="Vector_89" d="M14.0196 50.1307C15.1928 50.1307 16.1438 49.1797 16.1438 48.0065C16.1438 46.8334 15.1928 45.8824 14.0196 45.8824C12.8465 45.8824 11.8954 46.8334 11.8954 48.0065C11.8954 49.1797 12.8465 50.1307 14.0196 50.1307Z" fill="var(--fill-0, #5D0F08)"/>
<path id="Vector_90" d="M26.7647 50.1307C27.9379 50.1307 28.8889 49.1797 28.8889 48.0065C28.8889 46.8334 27.9379 45.8824 26.7647 45.8824C25.5916 45.8824 24.6405 46.8334 24.6405 48.0065C24.6405 49.1797 25.5916 50.1307 26.7647 50.1307Z" fill="var(--fill-0, #5D0F08)"/>
<path id="Vector_91" d="M31.0131 50.1307C32.1862 50.1307 33.1373 49.1797 33.1373 48.0065C33.1373 46.8334 32.1862 45.8824 31.0131 45.8824C29.8399 45.8824 28.8889 46.8334 28.8889 48.0065C28.8889 49.1797 29.8399 50.1307 31.0131 50.1307Z" fill="var(--fill-0, #5D0F08)"/>
<path id="Vector_92" d="M39.5098 50.1307C40.683 50.1307 41.634 49.1797 41.634 48.0065C41.634 46.8334 40.683 45.8824 39.5098 45.8824C38.3366 45.8824 37.3856 46.8334 37.3856 48.0065C37.3856 49.1797 38.3366 50.1307 39.5098 50.1307Z" fill="var(--fill-0, #5D0F08)"/>
<path id="Vector_93" d="M43.7582 50.1307C44.9313 50.1307 45.8824 49.1797 45.8824 48.0065C45.8824 46.8334 44.9313 45.8824 43.7582 45.8824C42.585 45.8824 41.634 46.8334 41.634 48.0065C41.634 49.1797 42.585 50.1307 43.7582 50.1307Z" fill="var(--fill-0, #5D0F08)"/>
<path id="Vector_94" d="M48.0065 50.1307C49.1797 50.1307 50.1307 49.1797 50.1307 48.0065C50.1307 46.8334 49.1797 45.8824 48.0065 45.8824C46.8334 45.8824 45.8824 46.8334 45.8824 48.0065C45.8824 49.1797 46.8334 50.1307 48.0065 50.1307Z" fill="var(--fill-0, #5D0F08)"/>
<path id="Vector_95" d="M56.5033 50.1307C57.6764 50.1307 58.6275 49.1797 58.6275 48.0065C58.6275 46.8334 57.6764 45.8824 56.5033 45.8824C55.3301 45.8824 54.3791 46.8334 54.3791 48.0065C54.3791 49.1797 55.3301 50.1307 56.5033 50.1307Z" fill="var(--fill-0, #5D0F08)"/>
<path id="Vector_96" d="M60.7516 50.1307C61.9248 50.1307 62.8758 49.1797 62.8758 48.0065C62.8758 46.8334 61.9248 45.8824 60.7516 45.8824C59.5785 45.8824 58.6274 46.8334 58.6274 48.0065C58.6274 49.1797 59.5785 50.1307 60.7516 50.1307Z" fill="var(--fill-0, #5D0F08)"/>
<path id="Vector_97" d="M65 50.1307C66.1732 50.1307 67.1242 49.1797 67.1242 48.0065C67.1242 46.8334 66.1732 45.8824 65 45.8824C63.8268 45.8824 62.8758 46.8334 62.8758 48.0065C62.8758 49.1797 63.8268 50.1307 65 50.1307Z" fill="var(--fill-0, #5D0F08)"/>
<path id="Vector_98" d="M69.2484 50.1307C70.4215 50.1307 71.3725 49.1797 71.3725 48.0065C71.3725 46.8334 70.4215 45.8824 69.2484 45.8824C68.0752 45.8824 67.1242 46.8334 67.1242 48.0065C67.1242 49.1797 68.0752 50.1307 69.2484 50.1307Z" fill="var(--fill-0, #5D0F08)"/>
<path id="Vector_99" d="M73.4967 50.1307C74.6699 50.1307 75.6209 49.1797 75.6209 48.0065C75.6209 46.8334 74.6699 45.8824 73.4967 45.8824C72.3236 45.8824 71.3726 46.8334 71.3726 48.0065C71.3726 49.1797 72.3236 50.1307 73.4967 50.1307Z" fill="var(--fill-0, #5D0F08)"/>
<path id="Vector_100" d="M77.7451 50.1307C78.9182 50.1307 79.8693 49.1797 79.8693 48.0065C79.8693 46.8334 78.9182 45.8824 77.7451 45.8824C76.5719 45.8824 75.6209 46.8334 75.6209 48.0065C75.6209 49.1797 76.5719 50.1307 77.7451 50.1307Z" fill="var(--fill-0, #5D0F08)"/>
<path id="Vector_101" d="M103.235 50.1307C104.408 50.1307 105.359 49.1797 105.359 48.0065C105.359 46.8334 104.408 45.8824 103.235 45.8824C102.062 45.8824 101.111 46.8334 101.111 48.0065C101.111 49.1797 102.062 50.1307 103.235 50.1307Z" fill="var(--fill-0, #5D0F08)"/>
<path id="Vector_102" d="M111.732 50.1307C112.905 50.1307 113.856 49.1797 113.856 48.0065C113.856 46.8334 112.905 45.8824 111.732 45.8824C110.559 45.8824 109.608 46.8334 109.608 48.0065C109.608 49.1797 110.559 50.1307 111.732 50.1307Z" fill="var(--fill-0, #5D0F08)"/>
<path id="Vector_103" d="M115.98 50.1307C117.154 50.1307 118.105 49.1797 118.105 48.0065C118.105 46.8334 117.154 45.8824 115.98 45.8824C114.807 45.8824 113.856 46.8334 113.856 48.0065C113.856 49.1797 114.807 50.1307 115.98 50.1307Z" fill="var(--fill-0, #5D0F08)"/>
<path id="Vector_104" d="M5.52288 54.3791C6.69603 54.3791 7.64706 53.4281 7.64706 52.2549C7.64706 51.0817 6.69603 50.1307 5.52288 50.1307C4.34972 50.1307 3.39869 51.0817 3.39869 52.2549C3.39869 53.4281 4.34972 54.3791 5.52288 54.3791Z" fill="var(--fill-0, #5D0F08)"/>
<path id="Vector_105" d="M18.268 54.3791C19.4411 54.3791 20.3922 53.4281 20.3922 52.2549C20.3922 51.0817 19.4411 50.1307 18.268 50.1307C17.0948 50.1307 16.1438 51.0817 16.1438 52.2549C16.1438 53.4281 17.0948 54.3791 18.268 54.3791Z" fill="var(--fill-0, #5D0F08)"/>
<path id="Vector_106" d="M22.5163 54.3791C23.6895 54.3791 24.6405 53.4281 24.6405 52.2549C24.6405 51.0817 23.6895 50.1307 22.5163 50.1307C21.3432 50.1307 20.3922 51.0817 20.3922 52.2549C20.3922 53.4281 21.3432 54.3791 22.5163 54.3791Z" fill="var(--fill-0, #5D0F08)"/>
<path id="Vector_107" d="M35.2614 54.3791C36.4346 54.3791 37.3856 53.4281 37.3856 52.2549C37.3856 51.0817 36.4346 50.1307 35.2614 50.1307C34.0883 50.1307 33.1373 51.0817 33.1373 52.2549C33.1373 53.4281 34.0883 54.3791 35.2614 54.3791Z" fill="var(--fill-0, #5D0F08)"/>
<path id="Vector_108" d="M43.7582 54.3791C44.9313 54.3791 45.8824 53.4281 45.8824 52.2549C45.8824 51.0817 44.9313 50.1307 43.7582 50.1307C42.585 50.1307 41.634 51.0817 41.634 52.2549C41.634 53.4281 42.585 54.3791 43.7582 54.3791Z" fill="var(--fill-0, #5D0F08)"/>
<path id="Vector_109" d="M52.2549 54.3791C53.4281 54.3791 54.3791 53.4281 54.3791 52.2549C54.3791 51.0817 53.4281 50.1307 52.2549 50.1307C51.0817 50.1307 50.1307 51.0817 50.1307 52.2549C50.1307 53.4281 51.0817 54.3791 52.2549 54.3791Z" fill="var(--fill-0, #5D0F08)"/>
<path id="Vector_110" d="M56.5033 54.3791C57.6764 54.3791 58.6275 53.4281 58.6275 52.2549C58.6275 51.0817 57.6764 50.1307 56.5033 50.1307C55.3301 50.1307 54.3791 51.0817 54.3791 52.2549C54.3791 53.4281 55.3301 54.3791 56.5033 54.3791Z" fill="var(--fill-0, #5D0F08)"/>
<path id="Vector_111" d="M60.7516 54.3791C61.9248 54.3791 62.8758 53.4281 62.8758 52.2549C62.8758 51.0817 61.9248 50.1307 60.7516 50.1307C59.5785 50.1307 58.6274 51.0817 58.6274 52.2549C58.6274 53.4281 59.5785 54.3791 60.7516 54.3791Z" fill="var(--fill-0, #5D0F08)"/>
<path id="Vector_112" d="M69.2484 54.3791C70.4215 54.3791 71.3725 53.4281 71.3725 52.2549C71.3725 51.0817 70.4215 50.1307 69.2484 50.1307C68.0752 50.1307 67.1242 51.0817 67.1242 52.2549C67.1242 53.4281 68.0752 54.3791 69.2484 54.3791Z" fill="var(--fill-0, #5D0F08)"/>
<path id="Vector_113" d="M77.7451 54.3791C78.9182 54.3791 79.8693 53.4281 79.8693 52.2549C79.8693 51.0817 78.9182 50.1307 77.7451 50.1307C76.5719 50.1307 75.6209 51.0817 75.6209 52.2549C75.6209 53.4281 76.5719 54.3791 77.7451 54.3791Z" fill="var(--fill-0, #5D0F08)"/>
<path id="Vector_114" d="M81.9935 54.3791C83.1666 54.3791 84.1176 53.4281 84.1176 52.2549C84.1176 51.0817 83.1666 50.1307 81.9935 50.1307C80.8203 50.1307 79.8693 51.0817 79.8693 52.2549C79.8693 53.4281 80.8203 54.3791 81.9935 54.3791Z" fill="var(--fill-0, #5D0F08)"/>
<path id="Vector_115" d="M86.2418 54.3791C87.415 54.3791 88.366 53.4281 88.366 52.2549C88.366 51.0817 87.415 50.1307 86.2418 50.1307C85.0687 50.1307 84.1177 51.0817 84.1177 52.2549C84.1177 53.4281 85.0687 54.3791 86.2418 54.3791Z" fill="var(--fill-0, #5D0F08)"/>
<path id="Vector_116" d="M90.4902 54.3791C91.6633 54.3791 92.6144 53.4281 92.6144 52.2549C92.6144 51.0817 91.6633 50.1307 90.4902 50.1307C89.317 50.1307 88.366 51.0817 88.366 52.2549C88.366 53.4281 89.317 54.3791 90.4902 54.3791Z" fill="var(--fill-0, #5D0F08)"/>
<path id="Vector_117" d="M94.7386 54.3791C95.9117 54.3791 96.8627 53.4281 96.8627 52.2549C96.8627 51.0817 95.9117 50.1307 94.7386 50.1307C93.5654 50.1307 92.6144 51.0817 92.6144 52.2549C92.6144 53.4281 93.5654 54.3791 94.7386 54.3791Z" fill="var(--fill-0, #5D0F08)"/>
<path id="Vector_118" d="M98.9869 54.3791C100.16 54.3791 101.111 53.4281 101.111 52.2549C101.111 51.0817 100.16 50.1307 98.9869 50.1307C97.8138 50.1307 96.8627 51.0817 96.8627 52.2549C96.8627 53.4281 97.8138 54.3791 98.9869 54.3791Z" fill="var(--fill-0, #5D0F08)"/>
<path id="Vector_119" d="M103.235 54.3791C104.408 54.3791 105.359 53.4281 105.359 52.2549C105.359 51.0817 104.408 50.1307 103.235 50.1307C102.062 50.1307 101.111 51.0817 101.111 52.2549C101.111 53.4281 102.062 54.3791 103.235 54.3791Z" fill="var(--fill-0, #5D0F08)"/>
<path id="Vector_120" d="M107.484 54.3791C108.657 54.3791 109.608 53.4281 109.608 52.2549C109.608 51.0817 108.657 50.1307 107.484 50.1307C106.311 50.1307 105.359 51.0817 105.359 52.2549C105.359 53.4281 106.311 54.3791 107.484 54.3791Z" fill="var(--fill-0, #5D0F08)"/>
<path id="Vector_121" d="M111.732 54.3791C112.905 54.3791 113.856 53.4281 113.856 52.2549C113.856 51.0817 112.905 50.1307 111.732 50.1307C110.559 50.1307 109.608 51.0817 109.608 52.2549C109.608 53.4281 110.559 54.3791 111.732 54.3791Z" fill="var(--fill-0, #5D0F08)"/>
<path id="Vector_122" d="M124.477 54.3791C125.65 54.3791 126.601 53.4281 126.601 52.2549C126.601 51.0817 125.65 50.1307 124.477 50.1307C123.304 50.1307 122.353 51.0817 122.353 52.2549C122.353 53.4281 123.304 54.3791 124.477 54.3791Z" fill="var(--fill-0, #5D0F08)"/>
<path id="Vector_123" d="M5.52288 58.6275C6.69603 58.6275 7.64706 57.6764 7.64706 56.5033C7.64706 55.3301 6.69603 54.3791 5.52288 54.3791C4.34972 54.3791 3.39869 55.3301 3.39869 56.5033C3.39869 57.6764 4.34972 58.6275 5.52288 58.6275Z" fill="var(--fill-0, #5D0F08)"/>
<path id="Vector_124" d="M22.5163 58.6275C23.6895 58.6275 24.6405 57.6764 24.6405 56.5033C24.6405 55.3301 23.6895 54.3791 22.5163 54.3791C21.3432 54.3791 20.3922 55.3301 20.3922 56.5033C20.3922 57.6764 21.3432 58.6275 22.5163 58.6275Z" fill="var(--fill-0, #5D0F08)"/>
<path id="Vector_125" d="M26.7647 58.6275C27.9379 58.6275 28.8889 57.6764 28.8889 56.5033C28.8889 55.3301 27.9379 54.3791 26.7647 54.3791C25.5916 54.3791 24.6405 55.3301 24.6405 56.5033C24.6405 57.6764 25.5916 58.6275 26.7647 58.6275Z" fill="var(--fill-0, #5D0F08)"/>
<path id="Vector_126" d="M31.0131 58.6275C32.1862 58.6275 33.1373 57.6764 33.1373 56.5033C33.1373 55.3301 32.1862 54.3791 31.0131 54.3791C29.8399 54.3791 28.8889 55.3301 28.8889 56.5033C28.8889 57.6764 29.8399 58.6275 31.0131 58.6275Z" fill="var(--fill-0, #5D0F08)"/>
<path id="Vector_127" d="M43.7582 58.6275C44.9313 58.6275 45.8824 57.6764 45.8824 56.5033C45.8824 55.3301 44.9313 54.3791 43.7582 54.3791C42.585 54.3791 41.634 55.3301 41.634 56.5033C41.634 57.6764 42.585 58.6275 43.7582 58.6275Z" fill="var(--fill-0, #5D0F08)"/>
<path id="Vector_128" d="M65 58.6275C66.1732 58.6275 67.1242 57.6764 67.1242 56.5033C67.1242 55.3301 66.1732 54.3791 65 54.3791C63.8268 54.3791 62.8758 55.3301 62.8758 56.5033C62.8758 57.6764 63.8268 58.6275 65 58.6275Z" fill="var(--fill-0, #5D0F08)"/>
<path id="Vector_129" d="M69.2484 58.6275C70.4215 58.6275 71.3725 57.6764 71.3725 56.5033C71.3725 55.3301 70.4215 54.3791 69.2484 54.3791C68.0752 54.3791 67.1242 55.3301 67.1242 56.5033C67.1242 57.6764 68.0752 58.6275 69.2484 58.6275Z" fill="var(--fill-0, #5D0F08)"/>
<path id="Vector_130" d="M94.7386 58.6275C95.9117 58.6275 96.8627 57.6764 96.8627 56.5033C96.8627 55.3301 95.9117 54.3791 94.7386 54.3791C93.5654 54.3791 92.6144 55.3301 92.6144 56.5033C92.6144 57.6764 93.5654 58.6275 94.7386 58.6275Z" fill="var(--fill-0, #5D0F08)"/>
<path id="Vector_131" d="M98.9869 58.6275C100.16 58.6275 101.111 57.6764 101.111 56.5033C101.111 55.3301 100.16 54.3791 98.9869 54.3791C97.8138 54.3791 96.8627 55.3301 96.8627 56.5033C96.8627 57.6764 97.8138 58.6275 98.9869 58.6275Z" fill="var(--fill-0, #5D0F08)"/>
<path id="Vector_132" d="M5.52288 62.8758C6.69603 62.8758 7.64706 61.9248 7.64706 60.7516C7.64706 59.5785 6.69603 58.6274 5.52288 58.6274C4.34972 58.6274 3.39869 59.5785 3.39869 60.7516C3.39869 61.9248 4.34972 62.8758 5.52288 62.8758Z" fill="var(--fill-0, #5D0F08)"/>
<path id="Vector_133" d="M9.77124 62.8758C10.9444 62.8758 11.8954 61.9248 11.8954 60.7516C11.8954 59.5785 10.9444 58.6274 9.77124 58.6274C8.59809 58.6274 7.64706 59.5785 7.64706 60.7516C7.64706 61.9248 8.59809 62.8758 9.77124 62.8758Z" fill="var(--fill-0, #5D0F08)"/>
<path id="Vector_134" d="M14.0196 62.8758C15.1928 62.8758 16.1438 61.9248 16.1438 60.7516C16.1438 59.5785 15.1928 58.6274 14.0196 58.6274C12.8465 58.6274 11.8954 59.5785 11.8954 60.7516C11.8954 61.9248 12.8465 62.8758 14.0196 62.8758Z" fill="var(--fill-0, #5D0F08)"/>
<path id="Vector_135" d="M18.268 62.8758C19.4411 62.8758 20.3922 61.9248 20.3922 60.7516C20.3922 59.5785 19.4411 58.6274 18.268 58.6274C17.0948 58.6274 16.1438 59.5785 16.1438 60.7516C16.1438 61.9248 17.0948 62.8758 18.268 62.8758Z" fill="var(--fill-0, #5D0F08)"/>
<path id="Vector_136" d="M26.7647 62.8758C27.9379 62.8758 28.8889 61.9248 28.8889 60.7516C28.8889 59.5785 27.9379 58.6274 26.7647 58.6274C25.5916 58.6274 24.6405 59.5785 24.6405 60.7516C24.6405 61.9248 25.5916 62.8758 26.7647 62.8758Z" fill="var(--fill-0, #5D0F08)"/>
<path id="Vector_137" d="M35.2614 62.8758C36.4346 62.8758 37.3856 61.9248 37.3856 60.7516C37.3856 59.5785 36.4346 58.6274 35.2614 58.6274C34.0883 58.6274 33.1373 59.5785 33.1373 60.7516C33.1373 61.9248 34.0883 62.8758 35.2614 62.8758Z" fill="var(--fill-0, #5D0F08)"/>
<path id="Vector_138" d="M43.7582 62.8758C44.9313 62.8758 45.8824 61.9248 45.8824 60.7516C45.8824 59.5785 44.9313 58.6274 43.7582 58.6274C42.585 58.6274 41.634 59.5785 41.634 60.7516C41.634 61.9248 42.585 62.8758 43.7582 62.8758Z" fill="var(--fill-0, #5D0F08)"/>
<path id="Vector_139" d="M48.0065 62.8758C49.1797 62.8758 50.1307 61.9248 50.1307 60.7516C50.1307 59.5785 49.1797 58.6274 48.0065 58.6274C46.8334 58.6274 45.8824 59.5785 45.8824 60.7516C45.8824 61.9248 46.8334 62.8758 48.0065 62.8758Z" fill="var(--fill-0, #5D0F08)"/>
<path id="Vector_140" d="M69.2484 62.8758C70.4215 62.8758 71.3725 61.9248 71.3725 60.7516C71.3725 59.5785 70.4215 58.6274 69.2484 58.6274C68.0752 58.6274 67.1242 59.5785 67.1242 60.7516C67.1242 61.9248 68.0752 62.8758 69.2484 62.8758Z" fill="var(--fill-0, #5D0F08)"/>
<path id="Vector_141" d="M73.4967 62.8758C74.6699 62.8758 75.6209 61.9248 75.6209 60.7516C75.6209 59.5785 74.6699 58.6274 73.4967 58.6274C72.3236 58.6274 71.3726 59.5785 71.3726 60.7516C71.3726 61.9248 72.3236 62.8758 73.4967 62.8758Z" fill="var(--fill-0, #5D0F08)"/>
<path id="Vector_142" d="M86.2418 62.8758C87.415 62.8758 88.366 61.9248 88.366 60.7516C88.366 59.5785 87.415 58.6274 86.2418 58.6274C85.0687 58.6274 84.1177 59.5785 84.1177 60.7516C84.1177 61.9248 85.0687 62.8758 86.2418 62.8758Z" fill="var(--fill-0, #5D0F08)"/>
<path id="Vector_143" d="M90.4902 62.8758C91.6633 62.8758 92.6144 61.9248 92.6144 60.7516C92.6144 59.5785 91.6633 58.6274 90.4902 58.6274C89.317 58.6274 88.366 59.5785 88.366 60.7516C88.366 61.9248 89.317 62.8758 90.4902 62.8758Z" fill="var(--fill-0, #5D0F08)"/>
<path id="Vector_144" d="M103.235 62.8758C104.408 62.8758 105.359 61.9248 105.359 60.7516C105.359 59.5785 104.408 58.6274 103.235 58.6274C102.062 58.6274 101.111 59.5785 101.111 60.7516C101.111 61.9248 102.062 62.8758 103.235 62.8758Z" fill="var(--fill-0, #5D0F08)"/>
<path id="Vector_145" d="M111.732 62.8758C112.905 62.8758 113.856 61.9248 113.856 60.7516C113.856 59.5785 112.905 58.6274 111.732 58.6274C110.559 58.6274 109.608 59.5785 109.608 60.7516C109.608 61.9248 110.559 62.8758 111.732 62.8758Z" fill="var(--fill-0, #5D0F08)"/>
<path id="Vector_146" d="M120.229 62.8758C121.402 62.8758 122.353 61.9248 122.353 60.7516C122.353 59.5785 121.402 58.6274 120.229 58.6274C119.056 58.6274 118.105 59.5785 118.105 60.7516C118.105 61.9248 119.056 62.8758 120.229 62.8758Z" fill="var(--fill-0, #5D0F08)"/>
<path id="Vector_147" d="M18.268 67.1242C19.4411 67.1242 20.3922 66.1732 20.3922 65C20.3922 63.8268 19.4411 62.8758 18.268 62.8758C17.0948 62.8758 16.1438 63.8268 16.1438 65C16.1438 66.1732 17.0948 67.1242 18.268 67.1242Z" fill="var(--fill-0, #5D0F08)"/>
<path id="Vector_148" d="M22.5163 67.1242C23.6895 67.1242 24.6405 66.1732 24.6405 65C24.6405 63.8268 23.6895 62.8758 22.5163 62.8758C21.3432 62.8758 20.3922 63.8268 20.3922 65C20.3922 66.1732 21.3432 67.1242 22.5163 67.1242Z" fill="var(--fill-0, #5D0F08)"/>
<path id="Vector_149" d="M26.7647 67.1242C27.9379 67.1242 28.8889 66.1732 28.8889 65C28.8889 63.8268 27.9379 62.8758 26.7647 62.8758C25.5916 62.8758 24.6405 63.8268 24.6405 65C24.6405 66.1732 25.5916 67.1242 26.7647 67.1242Z" fill="var(--fill-0, #5D0F08)"/>
<path id="Vector_150" d="M31.0131 67.1242C32.1862 67.1242 33.1373 66.1732 33.1373 65C33.1373 63.8268 32.1862 62.8758 31.0131 62.8758C29.8399 62.8758 28.8889 63.8268 28.8889 65C28.8889 66.1732 29.8399 67.1242 31.0131 67.1242Z" fill="var(--fill-0, #5D0F08)"/>
<path id="Vector_151" d="M52.2549 67.1242C53.4281 67.1242 54.3791 66.1732 54.3791 65C54.3791 63.8268 53.4281 62.8758 52.2549 62.8758C51.0817 62.8758 50.1307 63.8268 50.1307 65C50.1307 66.1732 51.0817 67.1242 52.2549 67.1242Z" fill="var(--fill-0, #5D0F08)"/>
<path id="Vector_152" d="M56.5033 67.1242C57.6764 67.1242 58.6275 66.1732 58.6275 65C58.6275 63.8268 57.6764 62.8758 56.5033 62.8758C55.3301 62.8758 54.3791 63.8268 54.3791 65C54.3791 66.1732 55.3301 67.1242 56.5033 67.1242Z" fill="var(--fill-0, #5D0F08)"/>
<path id="Vector_153" d="M77.7451 67.1242C78.9182 67.1242 79.8693 66.1732 79.8693 65C79.8693 63.8268 78.9182 62.8758 77.7451 62.8758C76.5719 62.8758 75.6209 63.8268 75.6209 65C75.6209 66.1732 76.5719 67.1242 77.7451 67.1242Z" fill="var(--fill-0, #5D0F08)"/>
<path id="Vector_154" d="M81.9935 67.1242C83.1666 67.1242 84.1176 66.1732 84.1176 65C84.1176 63.8268 83.1666 62.8758 81.9935 62.8758C80.8203 62.8758 79.8693 63.8268 79.8693 65C79.8693 66.1732 80.8203 67.1242 81.9935 67.1242Z" fill="var(--fill-0, #5D0F08)"/>
<path id="Vector_155" d="M90.4902 67.1242C91.6633 67.1242 92.6144 66.1732 92.6144 65C92.6144 63.8268 91.6633 62.8758 90.4902 62.8758C89.317 62.8758 88.366 63.8268 88.366 65C88.366 66.1732 89.317 67.1242 90.4902 67.1242Z" fill="var(--fill-0, #5D0F08)"/>
<path id="Vector_156" d="M111.732 67.1242C112.905 67.1242 113.856 66.1732 113.856 65C113.856 63.8268 112.905 62.8758 111.732 62.8758C110.559 62.8758 109.608 63.8268 109.608 65C109.608 66.1732 110.559 67.1242 111.732 67.1242Z" fill="var(--fill-0, #5D0F08)"/>
<path id="Vector_157" d="M115.98 67.1242C117.154 67.1242 118.105 66.1732 118.105 65C118.105 63.8268 117.154 62.8758 115.98 62.8758C114.807 62.8758 113.856 63.8268 113.856 65C113.856 66.1732 114.807 67.1242 115.98 67.1242Z" fill="var(--fill-0, #5D0F08)"/>
<path id="Vector_158" d="M120.229 67.1242C121.402 67.1242 122.353 66.1732 122.353 65C122.353 63.8268 121.402 62.8758 120.229 62.8758C119.056 62.8758 118.105 63.8268 118.105 65C118.105 66.1732 119.056 67.1242 120.229 67.1242Z" fill="var(--fill-0, #5D0F08)"/>
<path id="Vector_159" d="M124.477 67.1242C125.65 67.1242 126.601 66.1732 126.601 65C126.601 63.8268 125.65 62.8758 124.477 62.8758C123.304 62.8758 122.353 63.8268 122.353 65C122.353 66.1732 123.304 67.1242 124.477 67.1242Z" fill="var(--fill-0, #5D0F08)"/>
<path id="Vector_160" d="M5.52288 71.3725C6.69603 71.3725 7.64706 70.4215 7.64706 69.2484C7.64706 68.0752 6.69603 67.1242 5.52288 67.1242C4.34972 67.1242 3.39869 68.0752 3.39869 69.2484C3.39869 70.4215 4.34972 71.3725 5.52288 71.3725Z" fill="var(--fill-0, #5D0F08)"/>
<path id="Vector_161" d="M9.77124 71.3725C10.9444 71.3725 11.8954 70.4215 11.8954 69.2484C11.8954 68.0752 10.9444 67.1242 9.77124 67.1242C8.59809 67.1242 7.64706 68.0752 7.64706 69.2484C7.64706 70.4215 8.59809 71.3725 9.77124 71.3725Z" fill="var(--fill-0, #5D0F08)"/>
<path id="Vector_162" d="M18.268 71.3725C19.4411 71.3725 20.3922 70.4215 20.3922 69.2484C20.3922 68.0752 19.4411 67.1242 18.268 67.1242C17.0948 67.1242 16.1438 68.0752 16.1438 69.2484C16.1438 70.4215 17.0948 71.3725 18.268 71.3725Z" fill="var(--fill-0, #5D0F08)"/>
<path id="Vector_163" d="M22.5163 71.3725C23.6895 71.3725 24.6405 70.4215 24.6405 69.2484C24.6405 68.0752 23.6895 67.1242 22.5163 67.1242C21.3432 67.1242 20.3922 68.0752 20.3922 69.2484C20.3922 70.4215 21.3432 71.3725 22.5163 71.3725Z" fill="var(--fill-0, #5D0F08)"/>
<path id="Vector_164" d="M26.7647 71.3725C27.9379 71.3725 28.8889 70.4215 28.8889 69.2484C28.8889 68.0752 27.9379 67.1242 26.7647 67.1242C25.5916 67.1242 24.6405 68.0752 24.6405 69.2484C24.6405 70.4215 25.5916 71.3725 26.7647 71.3725Z" fill="var(--fill-0, #5D0F08)"/>
<path id="Vector_165" d="M43.7582 71.3725C44.9313 71.3725 45.8824 70.4215 45.8824 69.2484C45.8824 68.0752 44.9313 67.1242 43.7582 67.1242C42.585 67.1242 41.634 68.0752 41.634 69.2484C41.634 70.4215 42.585 71.3725 43.7582 71.3725Z" fill="var(--fill-0, #5D0F08)"/>
<path id="Vector_166" d="M48.0065 71.3725C49.1797 71.3725 50.1307 70.4215 50.1307 69.2484C50.1307 68.0752 49.1797 67.1242 48.0065 67.1242C46.8334 67.1242 45.8824 68.0752 45.8824 69.2484C45.8824 70.4215 46.8334 71.3725 48.0065 71.3725Z" fill="var(--fill-0, #5D0F08)"/>
<path id="Vector_167" d="M56.5033 71.3725C57.6764 71.3725 58.6275 70.4215 58.6275 69.2484C58.6275 68.0752 57.6764 67.1242 56.5033 67.1242C55.3301 67.1242 54.3791 68.0752 54.3791 69.2484C54.3791 70.4215 55.3301 71.3725 56.5033 71.3725Z" fill="var(--fill-0, #5D0F08)"/>
<path id="Vector_168" d="M65 71.3725C66.1732 71.3725 67.1242 70.4215 67.1242 69.2484C67.1242 68.0752 66.1732 67.1242 65 67.1242C63.8268 67.1242 62.8758 68.0752 62.8758 69.2484C62.8758 70.4215 63.8268 71.3725 65 71.3725Z" fill="var(--fill-0, #5D0F08)"/>
<path id="Vector_169" d="M73.4967 71.3725C74.6699 71.3725 75.6209 70.4215 75.6209 69.2484C75.6209 68.0752 74.6699 67.1242 73.4967 67.1242C72.3236 67.1242 71.3726 68.0752 71.3726 69.2484C71.3726 70.4215 72.3236 71.3725 73.4967 71.3725Z" fill="var(--fill-0, #5D0F08)"/>
<path id="Vector_170" d="M77.7451 71.3725C78.9182 71.3725 79.8693 70.4215 79.8693 69.2484C79.8693 68.0752 78.9182 67.1242 77.7451 67.1242C76.5719 67.1242 75.6209 68.0752 75.6209 69.2484C75.6209 70.4215 76.5719 71.3725 77.7451 71.3725Z" fill="var(--fill-0, #5D0F08)"/>
<path id="Vector_171" d="M81.9935 71.3725C83.1666 71.3725 84.1176 70.4215 84.1176 69.2484C84.1176 68.0752 83.1666 67.1242 81.9935 67.1242C80.8203 67.1242 79.8693 68.0752 79.8693 69.2484C79.8693 70.4215 80.8203 71.3725 81.9935 71.3725Z" fill="var(--fill-0, #5D0F08)"/>
<path id="Vector_172" d="M86.2418 71.3725C87.415 71.3725 88.366 70.4215 88.366 69.2484C88.366 68.0752 87.415 67.1242 86.2418 67.1242C85.0687 67.1242 84.1177 68.0752 84.1177 69.2484C84.1177 70.4215 85.0687 71.3725 86.2418 71.3725Z" fill="var(--fill-0, #5D0F08)"/>
<path id="Vector_173" d="M90.4902 71.3725C91.6633 71.3725 92.6144 70.4215 92.6144 69.2484C92.6144 68.0752 91.6633 67.1242 90.4902 67.1242C89.317 67.1242 88.366 68.0752 88.366 69.2484C88.366 70.4215 89.317 71.3725 90.4902 71.3725Z" fill="var(--fill-0, #5D0F08)"/>
<path id="Vector_174" d="M98.9869 71.3725C100.16 71.3725 101.111 70.4215 101.111 69.2484C101.111 68.0752 100.16 67.1242 98.9869 67.1242C97.8138 67.1242 96.8627 68.0752 96.8627 69.2484C96.8627 70.4215 97.8138 71.3725 98.9869 71.3725Z" fill="var(--fill-0, #5D0F08)"/>
<path id="Vector_175" d="M107.484 71.3725C108.657 71.3725 109.608 70.4215 109.608 69.2484C109.608 68.0752 108.657 67.1242 107.484 67.1242C106.311 67.1242 105.359 68.0752 105.359 69.2484C105.359 70.4215 106.311 71.3725 107.484 71.3725Z" fill="var(--fill-0, #5D0F08)"/>
<path id="Vector_176" d="M120.229 71.3725C121.402 71.3725 122.353 70.4215 122.353 69.2484C122.353 68.0752 121.402 67.1242 120.229 67.1242C119.056 67.1242 118.105 68.0752 118.105 69.2484C118.105 70.4215 119.056 71.3725 120.229 71.3725Z" fill="var(--fill-0, #5D0F08)"/>
<path id="Vector_177" d="M124.477 71.3725C125.65 71.3725 126.601 70.4215 126.601 69.2484C126.601 68.0752 125.65 67.1242 124.477 67.1242C123.304 67.1242 122.353 68.0752 122.353 69.2484C122.353 70.4215 123.304 71.3725 124.477 71.3725Z" fill="var(--fill-0, #5D0F08)"/>
<path id="Vector_178" d="M9.77124 75.6209C10.9444 75.6209 11.8954 74.6699 11.8954 73.4967C11.8954 72.3236 10.9444 71.3726 9.77124 71.3726C8.59809 71.3726 7.64706 72.3236 7.64706 73.4967C7.64706 74.6699 8.59809 75.6209 9.77124 75.6209Z" fill="var(--fill-0, #5D0F08)"/>
<path id="Vector_179" d="M26.7647 75.6209C27.9379 75.6209 28.8889 74.6699 28.8889 73.4967C28.8889 72.3236 27.9379 71.3726 26.7647 71.3726C25.5916 71.3726 24.6405 72.3236 24.6405 73.4967C24.6405 74.6699 25.5916 75.6209 26.7647 75.6209Z" fill="var(--fill-0, #5D0F08)"/>
<path id="Vector_180" d="M31.0131 75.6209C32.1862 75.6209 33.1373 74.6699 33.1373 73.4967C33.1373 72.3236 32.1862 71.3726 31.0131 71.3726C29.8399 71.3726 28.8889 72.3236 28.8889 73.4967C28.8889 74.6699 29.8399 75.6209 31.0131 75.6209Z" fill="var(--fill-0, #5D0F08)"/>
<path id="Vector_181" d="M35.2614 75.6209C36.4346 75.6209 37.3856 74.6699 37.3856 73.4967C37.3856 72.3236 36.4346 71.3726 35.2614 71.3726C34.0883 71.3726 33.1373 72.3236 33.1373 73.4967C33.1373 74.6699 34.0883 75.6209 35.2614 75.6209Z" fill="var(--fill-0, #5D0F08)"/>
<path id="Vector_182" d="M56.5033 75.6209C57.6764 75.6209 58.6275 74.6699 58.6275 73.4967C58.6275 72.3236 57.6764 71.3726 56.5033 71.3726C55.3301 71.3726 54.3791 72.3236 54.3791 73.4967C54.3791 74.6699 55.3301 75.6209 56.5033 75.6209Z" fill="var(--fill-0, #5D0F08)"/>
<path id="Vector_183" d="M77.7451 75.6209C78.9182 75.6209 79.8693 74.6699 79.8693 73.4967C79.8693 72.3236 78.9182 71.3726 77.7451 71.3726C76.5719 71.3726 75.6209 72.3236 75.6209 73.4967C75.6209 74.6699 76.5719 75.6209 77.7451 75.6209Z" fill="var(--fill-0, #5D0F08)"/>
<path id="Vector_184" d="M90.4902 75.6209C91.6633 75.6209 92.6144 74.6699 92.6144 73.4967C92.6144 72.3236 91.6633 71.3726 90.4902 71.3726C89.317 71.3726 88.366 72.3236 88.366 73.4967C88.366 74.6699 89.317 75.6209 90.4902 75.6209Z" fill="var(--fill-0, #5D0F08)"/>
<path id="Vector_185" d="M103.235 75.6209C104.408 75.6209 105.359 74.6699 105.359 73.4967C105.359 72.3236 104.408 71.3726 103.235 71.3726C102.062 71.3726 101.111 72.3236 101.111 73.4967C101.111 74.6699 102.062 75.6209 103.235 75.6209Z" fill="var(--fill-0, #5D0F08)"/>
<path id="Vector_186" d="M107.484 75.6209C108.657 75.6209 109.608 74.6699 109.608 73.4967C109.608 72.3236 108.657 71.3726 107.484 71.3726C106.311 71.3726 105.359 72.3236 105.359 73.4967C105.359 74.6699 106.311 75.6209 107.484 75.6209Z" fill="var(--fill-0, #5D0F08)"/>
<path id="Vector_187" d="M5.52288 79.8693C6.69603 79.8693 7.64706 78.9182 7.64706 77.7451C7.64706 76.5719 6.69603 75.6209 5.52288 75.6209C4.34972 75.6209 3.39869 76.5719 3.39869 77.7451C3.39869 78.9182 4.34972 79.8693 5.52288 79.8693Z" fill="var(--fill-0, #5D0F08)"/>
<path id="Vector_188" d="M9.77124 79.8693C10.9444 79.8693 11.8954 78.9182 11.8954 77.7451C11.8954 76.5719 10.9444 75.6209 9.77124 75.6209C8.59809 75.6209 7.64706 76.5719 7.64706 77.7451C7.64706 78.9182 8.59809 79.8693 9.77124 79.8693Z" fill="var(--fill-0, #5D0F08)"/>
<path id="Vector_189" d="M18.268 79.8693C19.4411 79.8693 20.3922 78.9182 20.3922 77.7451C20.3922 76.5719 19.4411 75.6209 18.268 75.6209C17.0948 75.6209 16.1438 76.5719 16.1438 77.7451C16.1438 78.9182 17.0948 79.8693 18.268 79.8693Z" fill="var(--fill-0, #5D0F08)"/>
<path id="Vector_190" d="M43.7582 79.8693C44.9313 79.8693 45.8824 78.9182 45.8824 77.7451C45.8824 76.5719 44.9313 75.6209 43.7582 75.6209C42.585 75.6209 41.634 76.5719 41.634 77.7451C41.634 78.9182 42.585 79.8693 43.7582 79.8693Z" fill="var(--fill-0, #5D0F08)"/>
<path id="Vector_191" d="M48.0065 79.8693C49.1797 79.8693 50.1307 78.9182 50.1307 77.7451C50.1307 76.5719 49.1797 75.6209 48.0065 75.6209C46.8334 75.6209 45.8824 76.5719 45.8824 77.7451C45.8824 78.9182 46.8334 79.8693 48.0065 79.8693Z" fill="var(--fill-0, #5D0F08)"/>
<path id="Vector_192" d="M60.7516 79.8693C61.9248 79.8693 62.8758 78.9182 62.8758 77.7451C62.8758 76.5719 61.9248 75.6209 60.7516 75.6209C59.5785 75.6209 58.6274 76.5719 58.6274 77.7451C58.6274 78.9182 59.5785 79.8693 60.7516 79.8693Z" fill="var(--fill-0, #5D0F08)"/>
<path id="Vector_193" d="M65 79.8693C66.1732 79.8693 67.1242 78.9182 67.1242 77.7451C67.1242 76.5719 66.1732 75.6209 65 75.6209C63.8268 75.6209 62.8758 76.5719 62.8758 77.7451C62.8758 78.9182 63.8268 79.8693 65 79.8693Z" fill="var(--fill-0, #5D0F08)"/>
<path id="Vector_194" d="M69.2484 79.8693C70.4215 79.8693 71.3725 78.9182 71.3725 77.7451C71.3725 76.5719 70.4215 75.6209 69.2484 75.6209C68.0752 75.6209 67.1242 76.5719 67.1242 77.7451C67.1242 78.9182 68.0752 79.8693 69.2484 79.8693Z" fill="var(--fill-0, #5D0F08)"/>
<path id="Vector_195" d="M94.7386 79.8693C95.9117 79.8693 96.8627 78.9182 96.8627 77.7451C96.8627 76.5719 95.9117 75.6209 94.7386 75.6209C93.5654 75.6209 92.6144 76.5719 92.6144 77.7451C92.6144 78.9182 93.5654 79.8693 94.7386 79.8693Z" fill="var(--fill-0, #5D0F08)"/>
<path id="Vector_196" d="M103.235 79.8693C104.408 79.8693 105.359 78.9182 105.359 77.7451C105.359 76.5719 104.408 75.6209 103.235 75.6209C102.062 75.6209 101.111 76.5719 101.111 77.7451C101.111 78.9182 102.062 79.8693 103.235 79.8693Z" fill="var(--fill-0, #5D0F08)"/>
<path id="Vector_197" d="M111.732 79.8693C112.905 79.8693 113.856 78.9182 113.856 77.7451C113.856 76.5719 112.905 75.6209 111.732 75.6209C110.559 75.6209 109.608 76.5719 109.608 77.7451C109.608 78.9182 110.559 79.8693 111.732 79.8693Z" fill="var(--fill-0, #5D0F08)"/>
<path id="Vector_198" d="M120.229 79.8693C121.402 79.8693 122.353 78.9182 122.353 77.7451C122.353 76.5719 121.402 75.6209 120.229 75.6209C119.056 75.6209 118.105 76.5719 118.105 77.7451C118.105 78.9182 119.056 79.8693 120.229 79.8693Z" fill="var(--fill-0, #5D0F08)"/>
<path id="Vector_199" d="M124.477 79.8693C125.65 79.8693 126.601 78.9182 126.601 77.7451C126.601 76.5719 125.65 75.6209 124.477 75.6209C123.304 75.6209 122.353 76.5719 122.353 77.7451C122.353 78.9182 123.304 79.8693 124.477 79.8693Z" fill="var(--fill-0, #5D0F08)"/>
<path id="Vector_200" d="M5.52288 84.1176C6.69603 84.1176 7.64706 83.1666 7.64706 81.9935C7.64706 80.8203 6.69603 79.8693 5.52288 79.8693C4.34972 79.8693 3.39869 80.8203 3.39869 81.9935C3.39869 83.1666 4.34972 84.1176 5.52288 84.1176Z" fill="var(--fill-0, #5D0F08)"/>
<path id="Vector_201" d="M14.0196 84.1176C15.1928 84.1176 16.1438 83.1666 16.1438 81.9935C16.1438 80.8203 15.1928 79.8693 14.0196 79.8693C12.8465 79.8693 11.8954 80.8203 11.8954 81.9935C11.8954 83.1666 12.8465 84.1176 14.0196 84.1176Z" fill="var(--fill-0, #5D0F08)"/>
<path id="Vector_202" d="M18.268 84.1176C19.4411 84.1176 20.3922 83.1666 20.3922 81.9935C20.3922 80.8203 19.4411 79.8693 18.268 79.8693C17.0948 79.8693 16.1438 80.8203 16.1438 81.9935C16.1438 83.1666 17.0948 84.1176 18.268 84.1176Z" fill="var(--fill-0, #5D0F08)"/>
<path id="Vector_203" d="M22.5163 84.1176C23.6895 84.1176 24.6405 83.1666 24.6405 81.9935C24.6405 80.8203 23.6895 79.8693 22.5163 79.8693C21.3432 79.8693 20.3922 80.8203 20.3922 81.9935C20.3922 83.1666 21.3432 84.1176 22.5163 84.1176Z" fill="var(--fill-0, #5D0F08)"/>
<path id="Vector_204" d="M26.7647 84.1176C27.9379 84.1176 28.8889 83.1666 28.8889 81.9935C28.8889 80.8203 27.9379 79.8693 26.7647 79.8693C25.5916 79.8693 24.6405 80.8203 24.6405 81.9935C24.6405 83.1666 25.5916 84.1176 26.7647 84.1176Z" fill="var(--fill-0, #5D0F08)"/>
<path id="Vector_205" d="M31.0131 84.1176C32.1862 84.1176 33.1373 83.1666 33.1373 81.9935C33.1373 80.8203 32.1862 79.8693 31.0131 79.8693C29.8399 79.8693 28.8889 80.8203 28.8889 81.9935C28.8889 83.1666 29.8399 84.1176 31.0131 84.1176Z" fill="var(--fill-0, #5D0F08)"/>
<path id="Vector_206" d="M39.5098 84.1176C40.683 84.1176 41.634 83.1666 41.634 81.9935C41.634 80.8203 40.683 79.8693 39.5098 79.8693C38.3366 79.8693 37.3856 80.8203 37.3856 81.9935C37.3856 83.1666 38.3366 84.1176 39.5098 84.1176Z" fill="var(--fill-0, #5D0F08)"/>
<path id="Vector_207" d="M52.2549 84.1176C53.4281 84.1176 54.3791 83.1666 54.3791 81.9935C54.3791 80.8203 53.4281 79.8693 52.2549 79.8693C51.0817 79.8693 50.1307 80.8203 50.1307 81.9935C50.1307 83.1666 51.0817 84.1176 52.2549 84.1176Z" fill="var(--fill-0, #5D0F08)"/>
<path id="Vector_208" d="M60.7516 84.1176C61.9248 84.1176 62.8758 83.1666 62.8758 81.9935C62.8758 80.8203 61.9248 79.8693 60.7516 79.8693C59.5785 79.8693 58.6274 80.8203 58.6274 81.9935C58.6274 83.1666 59.5785 84.1176 60.7516 84.1176Z" fill="var(--fill-0, #5D0F08)"/>
<path id="Vector_209" d="M65 84.1176C66.1732 84.1176 67.1242 83.1666 67.1242 81.9935C67.1242 80.8203 66.1732 79.8693 65 79.8693C63.8268 79.8693 62.8758 80.8203 62.8758 81.9935C62.8758 83.1666 63.8268 84.1176 65 84.1176Z" fill="var(--fill-0, #5D0F08)"/>
<path id="Vector_210" d="M69.2484 84.1176C70.4215 84.1176 71.3725 83.1666 71.3725 81.9935C71.3725 80.8203 70.4215 79.8693 69.2484 79.8693C68.0752 79.8693 67.1242 80.8203 67.1242 81.9935C67.1242 83.1666 68.0752 84.1176 69.2484 84.1176Z" fill="var(--fill-0, #5D0F08)"/>
<path id="Vector_211" d="M77.7451 84.1176C78.9182 84.1176 79.8693 83.1666 79.8693 81.9935C79.8693 80.8203 78.9182 79.8693 77.7451 79.8693C76.5719 79.8693 75.6209 80.8203 75.6209 81.9935C75.6209 83.1666 76.5719 84.1176 77.7451 84.1176Z" fill="var(--fill-0, #5D0F08)"/>
<path id="Vector_212" d="M81.9935 84.1176C83.1666 84.1176 84.1176 83.1666 84.1176 81.9935C84.1176 80.8203 83.1666 79.8693 81.9935 79.8693C80.8203 79.8693 79.8693 80.8203 79.8693 81.9935C79.8693 83.1666 80.8203 84.1176 81.9935 84.1176Z" fill="var(--fill-0, #5D0F08)"/>
<path id="Vector_213" d="M111.732 84.1176C112.905 84.1176 113.856 83.1666 113.856 81.9935C113.856 80.8203 112.905 79.8693 111.732 79.8693C110.559 79.8693 109.608 80.8203 109.608 81.9935C109.608 83.1666 110.559 84.1176 111.732 84.1176Z" fill="var(--fill-0, #5D0F08)"/>
<path id="Vector_214" d="M115.98 84.1176C117.154 84.1176 118.105 83.1666 118.105 81.9935C118.105 80.8203 117.154 79.8693 115.98 79.8693C114.807 79.8693 113.856 80.8203 113.856 81.9935C113.856 83.1666 114.807 84.1176 115.98 84.1176Z" fill="var(--fill-0, #5D0F08)"/>
<path id="Vector_215" d="M124.477 84.1176C125.65 84.1176 126.601 83.1666 126.601 81.9935C126.601 80.8203 125.65 79.8693 124.477 79.8693C123.304 79.8693 122.353 80.8203 122.353 81.9935C122.353 83.1666 123.304 84.1176 124.477 84.1176Z" fill="var(--fill-0, #5D0F08)"/>
<path id="Vector_216" d="M5.52288 88.366C6.69603 88.366 7.64706 87.415 7.64706 86.2418C7.64706 85.0687 6.69603 84.1177 5.52288 84.1177C4.34972 84.1177 3.39869 85.0687 3.39869 86.2418C3.39869 87.415 4.34972 88.366 5.52288 88.366Z" fill="var(--fill-0, #5D0F08)"/>
<path id="Vector_217" d="M22.5163 88.366C23.6895 88.366 24.6405 87.415 24.6405 86.2418C24.6405 85.0687 23.6895 84.1177 22.5163 84.1177C21.3432 84.1177 20.3922 85.0687 20.3922 86.2418C20.3922 87.415 21.3432 88.366 22.5163 88.366Z" fill="var(--fill-0, #5D0F08)"/>
<path id="Vector_218" d="M26.7647 88.366C27.9379 88.366 28.8889 87.415 28.8889 86.2418C28.8889 85.0687 27.9379 84.1177 26.7647 84.1177C25.5916 84.1177 24.6405 85.0687 24.6405 86.2418C24.6405 87.415 25.5916 88.366 26.7647 88.366Z" fill="var(--fill-0, #5D0F08)"/>
<path id="Vector_219" d="M43.7582 88.366C44.9313 88.366 45.8824 87.415 45.8824 86.2418C45.8824 85.0687 44.9313 84.1177 43.7582 84.1177C42.585 84.1177 41.634 85.0687 41.634 86.2418C41.634 87.415 42.585 88.366 43.7582 88.366Z" fill="var(--fill-0, #5D0F08)"/>
<path id="Vector_220" d="M52.2549 88.366C53.4281 88.366 54.3791 87.415 54.3791 86.2418C54.3791 85.0687 53.4281 84.1177 52.2549 84.1177C51.0817 84.1177 50.1307 85.0687 50.1307 86.2418C50.1307 87.415 51.0817 88.366 52.2549 88.366Z" fill="var(--fill-0, #5D0F08)"/>
<path id="Vector_221" d="M56.5033 88.366C57.6764 88.366 58.6275 87.415 58.6275 86.2418C58.6275 85.0687 57.6764 84.1177 56.5033 84.1177C55.3301 84.1177 54.3791 85.0687 54.3791 86.2418C54.3791 87.415 55.3301 88.366 56.5033 88.366Z" fill="var(--fill-0, #5D0F08)"/>
<path id="Vector_222" d="M60.7516 88.366C61.9248 88.366 62.8758 87.415 62.8758 86.2418C62.8758 85.0687 61.9248 84.1177 60.7516 84.1177C59.5785 84.1177 58.6274 85.0687 58.6274 86.2418C58.6274 87.415 59.5785 88.366 60.7516 88.366Z" fill="var(--fill-0, #5D0F08)"/>
<path id="Vector_223" d="M69.2484 88.366C70.4215 88.366 71.3725 87.415 71.3725 86.2418C71.3725 85.0687 70.4215 84.1177 69.2484 84.1177C68.0752 84.1177 67.1242 85.0687 67.1242 86.2418C67.1242 87.415 68.0752 88.366 69.2484 88.366Z" fill="var(--fill-0, #5D0F08)"/>
<path id="Vector_224" d="M86.2418 88.366C87.415 88.366 88.366 87.415 88.366 86.2418C88.366 85.0687 87.415 84.1177 86.2418 84.1177C85.0687 84.1177 84.1177 85.0687 84.1177 86.2418C84.1177 87.415 85.0687 88.366 86.2418 88.366Z" fill="var(--fill-0, #5D0F08)"/>
<path id="Vector_225" d="M90.4902 88.366C91.6633 88.366 92.6144 87.415 92.6144 86.2418C92.6144 85.0687 91.6633 84.1177 90.4902 84.1177C89.317 84.1177 88.366 85.0687 88.366 86.2418C88.366 87.415 89.317 88.366 90.4902 88.366Z" fill="var(--fill-0, #5D0F08)"/>
<path id="Vector_226" d="M94.7386 88.366C95.9117 88.366 96.8627 87.415 96.8627 86.2418C96.8627 85.0687 95.9117 84.1177 94.7386 84.1177C93.5654 84.1177 92.6144 85.0687 92.6144 86.2418C92.6144 87.415 93.5654 88.366 94.7386 88.366Z" fill="var(--fill-0, #5D0F08)"/>
<path id="Vector_227" d="M98.9869 88.366C100.16 88.366 101.111 87.415 101.111 86.2418C101.111 85.0687 100.16 84.1177 98.9869 84.1177C97.8138 84.1177 96.8627 85.0687 96.8627 86.2418C96.8627 87.415 97.8138 88.366 98.9869 88.366Z" fill="var(--fill-0, #5D0F08)"/>
<path id="Vector_228" d="M103.235 88.366C104.408 88.366 105.359 87.415 105.359 86.2418C105.359 85.0687 104.408 84.1177 103.235 84.1177C102.062 84.1177 101.111 85.0687 101.111 86.2418C101.111 87.415 102.062 88.366 103.235 88.366Z" fill="var(--fill-0, #5D0F08)"/>
<path id="Vector_229" d="M107.484 88.366C108.657 88.366 109.608 87.415 109.608 86.2418C109.608 85.0687 108.657 84.1177 107.484 84.1177C106.311 84.1177 105.359 85.0687 105.359 86.2418C105.359 87.415 106.311 88.366 107.484 88.366Z" fill="var(--fill-0, #5D0F08)"/>
<path id="Vector_230" d="M5.52288 92.6144C6.69603 92.6144 7.64706 91.6633 7.64706 90.4902C7.64706 89.317 6.69603 88.366 5.52288 88.366C4.34972 88.366 3.39869 89.317 3.39869 90.4902C3.39869 91.6633 4.34972 92.6144 5.52288 92.6144Z" fill="var(--fill-0, #5D0F08)"/>
<path id="Vector_231" d="M14.0196 92.6144C15.1928 92.6144 16.1438 91.6633 16.1438 90.4902C16.1438 89.317 15.1928 88.366 14.0196 88.366C12.8465 88.366 11.8954 89.317 11.8954 90.4902C11.8954 91.6633 12.8465 92.6144 14.0196 92.6144Z" fill="var(--fill-0, #5D0F08)"/>
<path id="Vector_232" d="M18.268 92.6144C19.4411 92.6144 20.3922 91.6633 20.3922 90.4902C20.3922 89.317 19.4411 88.366 18.268 88.366C17.0948 88.366 16.1438 89.317 16.1438 90.4902C16.1438 91.6633 17.0948 92.6144 18.268 92.6144Z" fill="var(--fill-0, #5D0F08)"/>
<path id="Vector_233" d="M26.7647 92.6144C27.9379 92.6144 28.8889 91.6633 28.8889 90.4902C28.8889 89.317 27.9379 88.366 26.7647 88.366C25.5916 88.366 24.6405 89.317 24.6405 90.4902C24.6405 91.6633 25.5916 92.6144 26.7647 92.6144Z" fill="var(--fill-0, #5D0F08)"/>
<path id="Vector_234" d="M31.0131 92.6144C32.1862 92.6144 33.1373 91.6633 33.1373 90.4902C33.1373 89.317 32.1862 88.366 31.0131 88.366C29.8399 88.366 28.8889 89.317 28.8889 90.4902C28.8889 91.6633 29.8399 92.6144 31.0131 92.6144Z" fill="var(--fill-0, #5D0F08)"/>
<path id="Vector_235" d="M39.5098 92.6144C40.683 92.6144 41.634 91.6633 41.634 90.4902C41.634 89.317 40.683 88.366 39.5098 88.366C38.3366 88.366 37.3856 89.317 37.3856 90.4902C37.3856 91.6633 38.3366 92.6144 39.5098 92.6144Z" fill="var(--fill-0, #5D0F08)"/>
<path id="Vector_236" d="M48.0065 92.6144C49.1797 92.6144 50.1307 91.6633 50.1307 90.4902C50.1307 89.317 49.1797 88.366 48.0065 88.366C46.8334 88.366 45.8824 89.317 45.8824 90.4902C45.8824 91.6633 46.8334 92.6144 48.0065 92.6144Z" fill="var(--fill-0, #5D0F08)"/>
<path id="Vector_237" d="M56.5033 92.6144C57.6764 92.6144 58.6275 91.6633 58.6275 90.4902C58.6275 89.317 57.6764 88.366 56.5033 88.366C55.3301 88.366 54.3791 89.317 54.3791 90.4902C54.3791 91.6633 55.3301 92.6144 56.5033 92.6144Z" fill="var(--fill-0, #5D0F08)"/>
<path id="Vector_238" d="M65 92.6144C66.1732 92.6144 67.1242 91.6633 67.1242 90.4902C67.1242 89.317 66.1732 88.366 65 88.366C63.8268 88.366 62.8758 89.317 62.8758 90.4902C62.8758 91.6633 63.8268 92.6144 65 92.6144Z" fill="var(--fill-0, #5D0F08)"/>
<path id="Vector_239" d="M69.2484 92.6144C70.4215 92.6144 71.3725 91.6633 71.3725 90.4902C71.3725 89.317 70.4215 88.366 69.2484 88.366C68.0752 88.366 67.1242 89.317 67.1242 90.4902C67.1242 91.6633 68.0752 92.6144 69.2484 92.6144Z" fill="var(--fill-0, #5D0F08)"/>
<path id="Vector_240" d="M77.7451 92.6144C78.9182 92.6144 79.8693 91.6633 79.8693 90.4902C79.8693 89.317 78.9182 88.366 77.7451 88.366C76.5719 88.366 75.6209 89.317 75.6209 90.4902C75.6209 91.6633 76.5719 92.6144 77.7451 92.6144Z" fill="var(--fill-0, #5D0F08)"/>
<path id="Vector_241" d="M81.9935 92.6144C83.1666 92.6144 84.1176 91.6633 84.1176 90.4902C84.1176 89.317 83.1666 88.366 81.9935 88.366C80.8203 88.366 79.8693 89.317 79.8693 90.4902C79.8693 91.6633 80.8203 92.6144 81.9935 92.6144Z" fill="var(--fill-0, #5D0F08)"/>
<path id="Vector_242" d="M90.4902 92.6144C91.6633 92.6144 92.6144 91.6633 92.6144 90.4902C92.6144 89.317 91.6633 88.366 90.4902 88.366C89.317 88.366 88.366 89.317 88.366 90.4902C88.366 91.6633 89.317 92.6144 90.4902 92.6144Z" fill="var(--fill-0, #5D0F08)"/>
<path id="Vector_243" d="M94.7386 92.6144C95.9117 92.6144 96.8627 91.6633 96.8627 90.4902C96.8627 89.317 95.9117 88.366 94.7386 88.366C93.5654 88.366 92.6144 89.317 92.6144 90.4902C92.6144 91.6633 93.5654 92.6144 94.7386 92.6144Z" fill="var(--fill-0, #5D0F08)"/>
<path id="Vector_244" d="M98.9869 92.6144C100.16 92.6144 101.111 91.6633 101.111 90.4902C101.111 89.317 100.16 88.366 98.9869 88.366C97.8138 88.366 96.8627 89.317 96.8627 90.4902C96.8627 91.6633 97.8138 92.6144 98.9869 92.6144Z" fill="var(--fill-0, #5D0F08)"/>
<path id="Vector_245" d="M103.235 92.6144C104.408 92.6144 105.359 91.6633 105.359 90.4902C105.359 89.317 104.408 88.366 103.235 88.366C102.062 88.366 101.111 89.317 101.111 90.4902C101.111 91.6633 102.062 92.6144 103.235 92.6144Z" fill="var(--fill-0, #5D0F08)"/>
<path id="Vector_246" d="M107.484 92.6144C108.657 92.6144 109.608 91.6633 109.608 90.4902C109.608 89.317 108.657 88.366 107.484 88.366C106.311 88.366 105.359 89.317 105.359 90.4902C105.359 91.6633 106.311 92.6144 107.484 92.6144Z" fill="var(--fill-0, #5D0F08)"/>
<path id="Vector_247" d="M111.732 92.6144C112.905 92.6144 113.856 91.6633 113.856 90.4902C113.856 89.317 112.905 88.366 111.732 88.366C110.559 88.366 109.608 89.317 109.608 90.4902C109.608 91.6633 110.559 92.6144 111.732 92.6144Z" fill="var(--fill-0, #5D0F08)"/>
<path id="Vector_248" d="M115.98 92.6144C117.154 92.6144 118.105 91.6633 118.105 90.4902C118.105 89.317 117.154 88.366 115.98 88.366C114.807 88.366 113.856 89.317 113.856 90.4902C113.856 91.6633 114.807 92.6144 115.98 92.6144Z" fill="var(--fill-0, #5D0F08)"/>
<path id="Vector_249" d="M120.229 92.6144C121.402 92.6144 122.353 91.6633 122.353 90.4902C122.353 89.317 121.402 88.366 120.229 88.366C119.056 88.366 118.105 89.317 118.105 90.4902C118.105 91.6633 119.056 92.6144 120.229 92.6144Z" fill="var(--fill-0, #5D0F08)"/>
<path id="Vector_250" d="M39.5098 96.8627C40.683 96.8627 41.634 95.9117 41.634 94.7386C41.634 93.5654 40.683 92.6144 39.5098 92.6144C38.3366 92.6144 37.3856 93.5654 37.3856 94.7386C37.3856 95.9117 38.3366 96.8627 39.5098 96.8627Z" fill="var(--fill-0, #5D0F08)"/>
<path id="Vector_251" d="M81.9935 96.8627C83.1666 96.8627 84.1176 95.9117 84.1176 94.7386C84.1176 93.5654 83.1666 92.6144 81.9935 92.6144C80.8203 92.6144 79.8693 93.5654 79.8693 94.7386C79.8693 95.9117 80.8203 96.8627 81.9935 96.8627Z" fill="var(--fill-0, #5D0F08)"/>
<path id="Vector_252" d="M90.4902 96.8627C91.6633 96.8627 92.6144 95.9117 92.6144 94.7386C92.6144 93.5654 91.6633 92.6144 90.4902 92.6144C89.317 92.6144 88.366 93.5654 88.366 94.7386C88.366 95.9117 89.317 96.8627 90.4902 96.8627Z" fill="var(--fill-0, #5D0F08)"/>
<path id="Vector_253" d="M107.484 96.8627C108.657 96.8627 109.608 95.9117 109.608 94.7386C109.608 93.5654 108.657 92.6144 107.484 92.6144C106.311 92.6144 105.359 93.5654 105.359 94.7386C105.359 95.9117 106.311 96.8627 107.484 96.8627Z" fill="var(--fill-0, #5D0F08)"/>
<path id="Vector_254" d="M120.229 96.8627C121.402 96.8627 122.353 95.9117 122.353 94.7386C122.353 93.5654 121.402 92.6144 120.229 92.6144C119.056 92.6144 118.105 93.5654 118.105 94.7386C118.105 95.9117 119.056 96.8627 120.229 96.8627Z" fill="var(--fill-0, #5D0F08)"/>
<path id="Vector_255" d="M43.7582 101.111C44.9313 101.111 45.8824 100.16 45.8824 98.9869C45.8824 97.8138 44.9313 96.8627 43.7582 96.8627C42.585 96.8627 41.634 97.8138 41.634 98.9869C41.634 100.16 42.585 101.111 43.7582 101.111Z" fill="var(--fill-0, #5D0F08)"/>
<path id="Vector_256" d="M73.4967 101.111C74.6699 101.111 75.6209 100.16 75.6209 98.9869C75.6209 97.8138 74.6699 96.8627 73.4967 96.8627C72.3236 96.8627 71.3726 97.8138 71.3726 98.9869C71.3726 100.16 72.3236 101.111 73.4967 101.111Z" fill="var(--fill-0, #5D0F08)"/>
<path id="Vector_257" d="M77.7451 101.111C78.9182 101.111 79.8693 100.16 79.8693 98.9869C79.8693 97.8138 78.9182 96.8627 77.7451 96.8627C76.5719 96.8627 75.6209 97.8138 75.6209 98.9869C75.6209 100.16 76.5719 101.111 77.7451 101.111Z" fill="var(--fill-0, #5D0F08)"/>
<path id="Vector_258" d="M81.9935 101.111C83.1666 101.111 84.1176 100.16 84.1176 98.9869C84.1176 97.8138 83.1666 96.8627 81.9935 96.8627C80.8203 96.8627 79.8693 97.8138 79.8693 98.9869C79.8693 100.16 80.8203 101.111 81.9935 101.111Z" fill="var(--fill-0, #5D0F08)"/>
<path id="Vector_259" d="M86.2418 101.111C87.415 101.111 88.366 100.16 88.366 98.9869C88.366 97.8138 87.415 96.8627 86.2418 96.8627C85.0687 96.8627 84.1177 97.8138 84.1177 98.9869C84.1177 100.16 85.0687 101.111 86.2418 101.111Z" fill="var(--fill-0, #5D0F08)"/>
<path id="Vector_260" d="M90.4902 101.111C91.6633 101.111 92.6144 100.16 92.6144 98.9869C92.6144 97.8138 91.6633 96.8627 90.4902 96.8627C89.317 96.8627 88.366 97.8138 88.366 98.9869C88.366 100.16 89.317 101.111 90.4902 101.111Z" fill="var(--fill-0, #5D0F08)"/>
<path id="Vector_261" d="M98.9869 101.111C100.16 101.111 101.111 100.16 101.111 98.9869C101.111 97.8138 100.16 96.8627 98.9869 96.8627C97.8138 96.8627 96.8627 97.8138 96.8627 98.9869C96.8627 100.16 97.8138 101.111 98.9869 101.111Z" fill="var(--fill-0, #5D0F08)"/>
<path id="Vector_262" d="M107.484 101.111C108.657 101.111 109.608 100.16 109.608 98.9869C109.608 97.8138 108.657 96.8627 107.484 96.8627C106.311 96.8627 105.359 97.8138 105.359 98.9869C105.359 100.16 106.311 101.111 107.484 101.111Z" fill="var(--fill-0, #5D0F08)"/>
<path id="Vector_263" d="M111.732 101.111C112.905 101.111 113.856 100.16 113.856 98.9869C113.856 97.8138 112.905 96.8627 111.732 96.8627C110.559 96.8627 109.608 97.8138 109.608 98.9869C109.608 100.16 110.559 101.111 111.732 101.111Z" fill="var(--fill-0, #5D0F08)"/>
<path id="Vector_264" d="M115.98 101.111C117.154 101.111 118.105 100.16 118.105 98.9869C118.105 97.8138 117.154 96.8627 115.98 96.8627C114.807 96.8627 113.856 97.8138 113.856 98.9869C113.856 100.16 114.807 101.111 115.98 101.111Z" fill="var(--fill-0, #5D0F08)"/>
<path id="Vector_265" d="M39.5098 105.359C40.683 105.359 41.634 104.408 41.634 103.235C41.634 102.062 40.683 101.111 39.5098 101.111C38.3366 101.111 37.3856 102.062 37.3856 103.235C37.3856 104.408 38.3366 105.359 39.5098 105.359Z" fill="var(--fill-0, #5D0F08)"/>
<path id="Vector_266" d="M48.0065 105.359C49.1797 105.359 50.1307 104.408 50.1307 103.235C50.1307 102.062 49.1797 101.111 48.0065 101.111C46.8334 101.111 45.8824 102.062 45.8824 103.235C45.8824 104.408 46.8334 105.359 48.0065 105.359Z" fill="var(--fill-0, #5D0F08)"/>
<path id="Vector_267" d="M65 105.359C66.1732 105.359 67.1242 104.408 67.1242 103.235C67.1242 102.062 66.1732 101.111 65 101.111C63.8268 101.111 62.8758 102.062 62.8758 103.235C62.8758 104.408 63.8268 105.359 65 105.359Z" fill="var(--fill-0, #5D0F08)"/>
<path id="Vector_268" d="M69.2484 105.359C70.4215 105.359 71.3725 104.408 71.3725 103.235C71.3725 102.062 70.4215 101.111 69.2484 101.111C68.0752 101.111 67.1242 102.062 67.1242 103.235C67.1242 104.408 68.0752 105.359 69.2484 105.359Z" fill="var(--fill-0, #5D0F08)"/>
<path id="Vector_269" d="M73.4967 105.359C74.6699 105.359 75.6209 104.408 75.6209 103.235C75.6209 102.062 74.6699 101.111 73.4967 101.111C72.3236 101.111 71.3726 102.062 71.3726 103.235C71.3726 104.408 72.3236 105.359 73.4967 105.359Z" fill="var(--fill-0, #5D0F08)"/>
<path id="Vector_270" d="M86.2418 105.359C87.415 105.359 88.366 104.408 88.366 103.235C88.366 102.062 87.415 101.111 86.2418 101.111C85.0687 101.111 84.1177 102.062 84.1177 103.235C84.1177 104.408 85.0687 105.359 86.2418 105.359Z" fill="var(--fill-0, #5D0F08)"/>
<path id="Vector_271" d="M90.4902 105.359C91.6633 105.359 92.6144 104.408 92.6144 103.235C92.6144 102.062 91.6633 101.111 90.4902 101.111C89.317 101.111 88.366 102.062 88.366 103.235C88.366 104.408 89.317 105.359 90.4902 105.359Z" fill="var(--fill-0, #5D0F08)"/>
<path id="Vector_272" d="M107.484 105.359C108.657 105.359 109.608 104.408 109.608 103.235C109.608 102.062 108.657 101.111 107.484 101.111C106.311 101.111 105.359 102.062 105.359 103.235C105.359 104.408 106.311 105.359 107.484 105.359Z" fill="var(--fill-0, #5D0F08)"/>
<path id="Vector_273" d="M115.98 105.359C117.154 105.359 118.105 104.408 118.105 103.235C118.105 102.062 117.154 101.111 115.98 101.111C114.807 101.111 113.856 102.062 113.856 103.235C113.856 104.408 114.807 105.359 115.98 105.359Z" fill="var(--fill-0, #5D0F08)"/>
<path id="Vector_274" d="M120.229 105.359C121.402 105.359 122.353 104.408 122.353 103.235C122.353 102.062 121.402 101.111 120.229 101.111C119.056 101.111 118.105 102.062 118.105 103.235C118.105 104.408 119.056 105.359 120.229 105.359Z" fill="var(--fill-0, #5D0F08)"/>
<path id="Vector_275" d="M124.477 105.359C125.65 105.359 126.601 104.408 126.601 103.235C126.601 102.062 125.65 101.111 124.477 101.111C123.304 101.111 122.353 102.062 122.353 103.235C122.353 104.408 123.304 105.359 124.477 105.359Z" fill="var(--fill-0, #5D0F08)"/>
<path id="Vector_276" d="M39.5098 109.608C40.683 109.608 41.634 108.657 41.634 107.484C41.634 106.311 40.683 105.359 39.5098 105.359C38.3366 105.359 37.3856 106.311 37.3856 107.484C37.3856 108.657 38.3366 109.608 39.5098 109.608Z" fill="var(--fill-0, #5D0F08)"/>
<path id="Vector_277" d="M43.7582 109.608C44.9313 109.608 45.8824 108.657 45.8824 107.484C45.8824 106.311 44.9313 105.359 43.7582 105.359C42.585 105.359 41.634 106.311 41.634 107.484C41.634 108.657 42.585 109.608 43.7582 109.608Z" fill="var(--fill-0, #5D0F08)"/>
<path id="Vector_278" d="M48.0065 109.608C49.1797 109.608 50.1307 108.657 50.1307 107.484C50.1307 106.311 49.1797 105.359 48.0065 105.359C46.8334 105.359 45.8824 106.311 45.8824 107.484C45.8824 108.657 46.8334 109.608 48.0065 109.608Z" fill="var(--fill-0, #5D0F08)"/>
<path id="Vector_279" d="M52.2549 109.608C53.4281 109.608 54.3791 108.657 54.3791 107.484C54.3791 106.311 53.4281 105.359 52.2549 105.359C51.0817 105.359 50.1307 106.311 50.1307 107.484C50.1307 108.657 51.0817 109.608 52.2549 109.608Z" fill="var(--fill-0, #5D0F08)"/>
<path id="Vector_280" d="M56.5033 109.608C57.6764 109.608 58.6275 108.657 58.6275 107.484C58.6275 106.311 57.6764 105.359 56.5033 105.359C55.3301 105.359 54.3791 106.311 54.3791 107.484C54.3791 108.657 55.3301 109.608 56.5033 109.608Z" fill="var(--fill-0, #5D0F08)"/>
<path id="Vector_281" d="M69.2484 109.608C70.4215 109.608 71.3725 108.657 71.3725 107.484C71.3725 106.311 70.4215 105.359 69.2484 105.359C68.0752 105.359 67.1242 106.311 67.1242 107.484C67.1242 108.657 68.0752 109.608 69.2484 109.608Z" fill="var(--fill-0, #5D0F08)"/>
<path id="Vector_282" d="M81.9935 109.608C83.1666 109.608 84.1176 108.657 84.1176 107.484C84.1176 106.311 83.1666 105.359 81.9935 105.359C80.8203 105.359 79.8693 106.311 79.8693 107.484C79.8693 108.657 80.8203 109.608 81.9935 109.608Z" fill="var(--fill-0, #5D0F08)"/>
<path id="Vector_283" d="M86.2418 109.608C87.415 109.608 88.366 108.657 88.366 107.484C88.366 106.311 87.415 105.359 86.2418 105.359C85.0687 105.359 84.1177 106.311 84.1177 107.484C84.1177 108.657 85.0687 109.608 86.2418 109.608Z" fill="var(--fill-0, #5D0F08)"/>
<path id="Vector_284" d="M90.4902 109.608C91.6633 109.608 92.6144 108.657 92.6144 107.484C92.6144 106.311 91.6633 105.359 90.4902 105.359C89.317 105.359 88.366 106.311 88.366 107.484C88.366 108.657 89.317 109.608 90.4902 109.608Z" fill="var(--fill-0, #5D0F08)"/>
<path id="Vector_285" d="M94.7386 109.608C95.9117 109.608 96.8627 108.657 96.8627 107.484C96.8627 106.311 95.9117 105.359 94.7386 105.359C93.5654 105.359 92.6144 106.311 92.6144 107.484C92.6144 108.657 93.5654 109.608 94.7386 109.608Z" fill="var(--fill-0, #5D0F08)"/>
<path id="Vector_286" d="M98.9869 109.608C100.16 109.608 101.111 108.657 101.111 107.484C101.111 106.311 100.16 105.359 98.9869 105.359C97.8138 105.359 96.8627 106.311 96.8627 107.484C96.8627 108.657 97.8138 109.608 98.9869 109.608Z" fill="var(--fill-0, #5D0F08)"/>
<path id="Vector_287" d="M103.235 109.608C104.408 109.608 105.359 108.657 105.359 107.484C105.359 106.311 104.408 105.359 103.235 105.359C102.062 105.359 101.111 106.311 101.111 107.484C101.111 108.657 102.062 109.608 103.235 109.608Z" fill="var(--fill-0, #5D0F08)"/>
<path id="Vector_288" d="M107.484 109.608C108.657 109.608 109.608 108.657 109.608 107.484C109.608 106.311 108.657 105.359 107.484 105.359C106.311 105.359 105.359 106.311 105.359 107.484C105.359 108.657 106.311 109.608 107.484 109.608Z" fill="var(--fill-0, #5D0F08)"/>
<path id="Vector_289" d="M115.98 109.608C117.154 109.608 118.105 108.657 118.105 107.484C118.105 106.311 117.154 105.359 115.98 105.359C114.807 105.359 113.856 106.311 113.856 107.484C113.856 108.657 114.807 109.608 115.98 109.608Z" fill="var(--fill-0, #5D0F08)"/>
<path id="Vector_290" d="M120.229 109.608C121.402 109.608 122.353 108.657 122.353 107.484C122.353 106.311 121.402 105.359 120.229 105.359C119.056 105.359 118.105 106.311 118.105 107.484C118.105 108.657 119.056 109.608 120.229 109.608Z" fill="var(--fill-0, #5D0F08)"/>
<path id="Vector_291" d="M124.477 109.608C125.65 109.608 126.601 108.657 126.601 107.484C126.601 106.311 125.65 105.359 124.477 105.359C123.304 105.359 122.353 106.311 122.353 107.484C122.353 108.657 123.304 109.608 124.477 109.608Z" fill="var(--fill-0, #5D0F08)"/>
<path id="Vector_292" d="M39.5098 113.856C40.683 113.856 41.634 112.905 41.634 111.732C41.634 110.559 40.683 109.608 39.5098 109.608C38.3366 109.608 37.3856 110.559 37.3856 111.732C37.3856 112.905 38.3366 113.856 39.5098 113.856Z" fill="var(--fill-0, #5D0F08)"/>
<path id="Vector_293" d="M43.7582 113.856C44.9313 113.856 45.8824 112.905 45.8824 111.732C45.8824 110.559 44.9313 109.608 43.7582 109.608C42.585 109.608 41.634 110.559 41.634 111.732C41.634 112.905 42.585 113.856 43.7582 113.856Z" fill="var(--fill-0, #5D0F08)"/>
<path id="Vector_294" d="M48.0065 113.856C49.1797 113.856 50.1307 112.905 50.1307 111.732C50.1307 110.559 49.1797 109.608 48.0065 109.608C46.8334 109.608 45.8824 110.559 45.8824 111.732C45.8824 112.905 46.8334 113.856 48.0065 113.856Z" fill="var(--fill-0, #5D0F08)"/>
<path id="Vector_295" d="M60.7516 113.856C61.9248 113.856 62.8758 112.905 62.8758 111.732C62.8758 110.559 61.9248 109.608 60.7516 109.608C59.5785 109.608 58.6274 110.559 58.6274 111.732C58.6274 112.905 59.5785 113.856 60.7516 113.856Z" fill="var(--fill-0, #5D0F08)"/>
<path id="Vector_296" d="M65 113.856C66.1732 113.856 67.1242 112.905 67.1242 111.732C67.1242 110.559 66.1732 109.608 65 109.608C63.8268 109.608 62.8758 110.559 62.8758 111.732C62.8758 112.905 63.8268 113.856 65 113.856Z" fill="var(--fill-0, #5D0F08)"/>
<path id="Vector_297" d="M90.4902 113.856C91.6633 113.856 92.6144 112.905 92.6144 111.732C92.6144 110.559 91.6633 109.608 90.4902 109.608C89.317 109.608 88.366 110.559 88.366 111.732C88.366 112.905 89.317 113.856 90.4902 113.856Z" fill="var(--fill-0, #5D0F08)"/>
<path id="Vector_298" d="M103.235 113.856C104.408 113.856 105.359 112.905 105.359 111.732C105.359 110.559 104.408 109.608 103.235 109.608C102.062 109.608 101.111 110.559 101.111 111.732C101.111 112.905 102.062 113.856 103.235 113.856Z" fill="var(--fill-0, #5D0F08)"/>
<path id="Vector_299" d="M39.5098 118.105C40.683 118.105 41.634 117.154 41.634 115.98C41.634 114.807 40.683 113.856 39.5098 113.856C38.3366 113.856 37.3856 114.807 37.3856 115.98C37.3856 117.154 38.3366 118.105 39.5098 118.105Z" fill="var(--fill-0, #5D0F08)"/>
<path id="Vector_300" d="M52.2549 118.105C53.4281 118.105 54.3791 117.154 54.3791 115.98C54.3791 114.807 53.4281 113.856 52.2549 113.856C51.0817 113.856 50.1307 114.807 50.1307 115.98C50.1307 117.154 51.0817 118.105 52.2549 118.105Z" fill="var(--fill-0, #5D0F08)"/>
<path id="Vector_301" d="M69.2484 118.105C70.4215 118.105 71.3725 117.154 71.3725 115.98C71.3725 114.807 70.4215 113.856 69.2484 113.856C68.0752 113.856 67.1242 114.807 67.1242 115.98C67.1242 117.154 68.0752 118.105 69.2484 118.105Z" fill="var(--fill-0, #5D0F08)"/>
<path id="Vector_302" d="M73.4967 118.105C74.6699 118.105 75.6209 117.154 75.6209 115.98C75.6209 114.807 74.6699 113.856 73.4967 113.856C72.3236 113.856 71.3726 114.807 71.3726 115.98C71.3726 117.154 72.3236 118.105 73.4967 118.105Z" fill="var(--fill-0, #5D0F08)"/>
<path id="Vector_303" d="M77.7451 118.105C78.9182 118.105 79.8693 117.154 79.8693 115.98C79.8693 114.807 78.9182 113.856 77.7451 113.856C76.5719 113.856 75.6209 114.807 75.6209 115.98C75.6209 117.154 76.5719 118.105 77.7451 118.105Z" fill="var(--fill-0, #5D0F08)"/>
<path id="Vector_304" d="M86.2418 118.105C87.415 118.105 88.366 117.154 88.366 115.98C88.366 114.807 87.415 113.856 86.2418 113.856C85.0687 113.856 84.1177 114.807 84.1177 115.98C84.1177 117.154 85.0687 118.105 86.2418 118.105Z" fill="var(--fill-0, #5D0F08)"/>
<path id="Vector_305" d="M103.235 118.105C104.408 118.105 105.359 117.154 105.359 115.98C105.359 114.807 104.408 113.856 103.235 113.856C102.062 113.856 101.111 114.807 101.111 115.98C101.111 117.154 102.062 118.105 103.235 118.105Z" fill="var(--fill-0, #5D0F08)"/>
<path id="Vector_306" d="M115.98 118.105C117.154 118.105 118.105 117.154 118.105 115.98C118.105 114.807 117.154 113.856 115.98 113.856C114.807 113.856 113.856 114.807 113.856 115.98C113.856 117.154 114.807 118.105 115.98 118.105Z" fill="var(--fill-0, #5D0F08)"/>
<path id="Vector_307" d="M120.229 118.105C121.402 118.105 122.353 117.154 122.353 115.98C122.353 114.807 121.402 113.856 120.229 113.856C119.056 113.856 118.105 114.807 118.105 115.98C118.105 117.154 119.056 118.105 120.229 118.105Z" fill="var(--fill-0, #5D0F08)"/>
<path id="Vector_308" d="M48.0065 122.353C49.1797 122.353 50.1307 121.402 50.1307 120.229C50.1307 119.056 49.1797 118.105 48.0065 118.105C46.8334 118.105 45.8824 119.056 45.8824 120.229C45.8824 121.402 46.8334 122.353 48.0065 122.353Z" fill="var(--fill-0, #5D0F08)"/>
<path id="Vector_309" d="M56.5033 122.353C57.6764 122.353 58.6275 121.402 58.6275 120.229C58.6275 119.056 57.6764 118.105 56.5033 118.105C55.3301 118.105 54.3791 119.056 54.3791 120.229C54.3791 121.402 55.3301 122.353 56.5033 122.353Z" fill="var(--fill-0, #5D0F08)"/>
<path id="Vector_310" d="M60.7516 122.353C61.9248 122.353 62.8758 121.402 62.8758 120.229C62.8758 119.056 61.9248 118.105 60.7516 118.105C59.5785 118.105 58.6274 119.056 58.6274 120.229C58.6274 121.402 59.5785 122.353 60.7516 122.353Z" fill="var(--fill-0, #5D0F08)"/>
<path id="Vector_311" d="M65 122.353C66.1732 122.353 67.1242 121.402 67.1242 120.229C67.1242 119.056 66.1732 118.105 65 118.105C63.8268 118.105 62.8758 119.056 62.8758 120.229C62.8758 121.402 63.8268 122.353 65 122.353Z" fill="var(--fill-0, #5D0F08)"/>
<path id="Vector_312" d="M69.2484 122.353C70.4215 122.353 71.3725 121.402 71.3725 120.229C71.3725 119.056 70.4215 118.105 69.2484 118.105C68.0752 118.105 67.1242 119.056 67.1242 120.229C67.1242 121.402 68.0752 122.353 69.2484 122.353Z" fill="var(--fill-0, #5D0F08)"/>
<path id="Vector_313" d="M73.4967 122.353C74.6699 122.353 75.6209 121.402 75.6209 120.229C75.6209 119.056 74.6699 118.105 73.4967 118.105C72.3236 118.105 71.3726 119.056 71.3726 120.229C71.3726 121.402 72.3236 122.353 73.4967 122.353Z" fill="var(--fill-0, #5D0F08)"/>
<path id="Vector_314" d="M90.4902 122.353C91.6633 122.353 92.6144 121.402 92.6144 120.229C92.6144 119.056 91.6633 118.105 90.4902 118.105C89.317 118.105 88.366 119.056 88.366 120.229C88.366 121.402 89.317 122.353 90.4902 122.353Z" fill="var(--fill-0, #5D0F08)"/>
<path id="Vector_315" d="M94.7386 122.353C95.9117 122.353 96.8627 121.402 96.8627 120.229C96.8627 119.056 95.9117 118.105 94.7386 118.105C93.5654 118.105 92.6144 119.056 92.6144 120.229C92.6144 121.402 93.5654 122.353 94.7386 122.353Z" fill="var(--fill-0, #5D0F08)"/>
<path id="Vector_316" d="M111.732 122.353C112.905 122.353 113.856 121.402 113.856 120.229C113.856 119.056 112.905 118.105 111.732 118.105C110.559 118.105 109.608 119.056 109.608 120.229C109.608 121.402 110.559 122.353 111.732 122.353Z" fill="var(--fill-0, #5D0F08)"/>
<path id="Vector_317" d="M115.98 122.353C117.154 122.353 118.105 121.402 118.105 120.229C118.105 119.056 117.154 118.105 115.98 118.105C114.807 118.105 113.856 119.056 113.856 120.229C113.856 121.402 114.807 122.353 115.98 122.353Z" fill="var(--fill-0, #5D0F08)"/>
<path id="Vector_318" d="M124.477 122.353C125.65 122.353 126.601 121.402 126.601 120.229C126.601 119.056 125.65 118.105 124.477 118.105C123.304 118.105 122.353 119.056 122.353 120.229C122.353 121.402 123.304 122.353 124.477 122.353Z" fill="var(--fill-0, #5D0F08)"/>
<path id="Vector_319" d="M39.5098 126.601C40.683 126.601 41.634 125.65 41.634 124.477C41.634 123.304 40.683 122.353 39.5098 122.353C38.3366 122.353 37.3856 123.304 37.3856 124.477C37.3856 125.65 38.3366 126.601 39.5098 126.601Z" fill="var(--fill-0, #5D0F08)"/>
<path id="Vector_320" d="M48.0065 126.601C49.1797 126.601 50.1307 125.65 50.1307 124.477C50.1307 123.304 49.1797 122.353 48.0065 122.353C46.8334 122.353 45.8824 123.304 45.8824 124.477C45.8824 125.65 46.8334 126.601 48.0065 126.601Z" fill="var(--fill-0, #5D0F08)"/>
<path id="Vector_321" d="M52.2549 126.601C53.4281 126.601 54.3791 125.65 54.3791 124.477C54.3791 123.304 53.4281 122.353 52.2549 122.353C51.0817 122.353 50.1307 123.304 50.1307 124.477C50.1307 125.65 51.0817 126.601 52.2549 126.601Z" fill="var(--fill-0, #5D0F08)"/>
<path id="Vector_322" d="M60.7516 126.601C61.9248 126.601 62.8758 125.65 62.8758 124.477C62.8758 123.304 61.9248 122.353 60.7516 122.353C59.5785 122.353 58.6274 123.304 58.6274 124.477C58.6274 125.65 59.5785 126.601 60.7516 126.601Z" fill="var(--fill-0, #5D0F08)"/>
<path id="Vector_323" d="M69.2484 126.601C70.4215 126.601 71.3725 125.65 71.3725 124.477C71.3725 123.304 70.4215 122.353 69.2484 122.353C68.0752 122.353 67.1242 123.304 67.1242 124.477C67.1242 125.65 68.0752 126.601 69.2484 126.601Z" fill="var(--fill-0, #5D0F08)"/>
<path id="Vector_324" d="M77.7451 126.601C78.9182 126.601 79.8693 125.65 79.8693 124.477C79.8693 123.304 78.9182 122.353 77.7451 122.353C76.5719 122.353 75.6209 123.304 75.6209 124.477C75.6209 125.65 76.5719 126.601 77.7451 126.601Z" fill="var(--fill-0, #5D0F08)"/>
<path id="Vector_325" d="M86.2418 126.601C87.415 126.601 88.366 125.65 88.366 124.477C88.366 123.304 87.415 122.353 86.2418 122.353C85.0687 122.353 84.1177 123.304 84.1177 124.477C84.1177 125.65 85.0687 126.601 86.2418 126.601Z" fill="var(--fill-0, #5D0F08)"/>
<path id="Vector_326" d="M90.4902 126.601C91.6633 126.601 92.6144 125.65 92.6144 124.477C92.6144 123.304 91.6633 122.353 90.4902 122.353C89.317 122.353 88.366 123.304 88.366 124.477C88.366 125.65 89.317 126.601 90.4902 126.601Z" fill="var(--fill-0, #5D0F08)"/>
<path id="Vector_327" d="M94.7386 126.601C95.9117 126.601 96.8627 125.65 96.8627 124.477C96.8627 123.304 95.9117 122.353 94.7386 122.353C93.5654 122.353 92.6144 123.304 92.6144 124.477C92.6144 125.65 93.5654 126.601 94.7386 126.601Z" fill="var(--fill-0, #5D0F08)"/>
<path id="Vector_328" d="M98.9869 126.601C100.16 126.601 101.111 125.65 101.111 124.477C101.111 123.304 100.16 122.353 98.9869 122.353C97.8138 122.353 96.8627 123.304 96.8627 124.477C96.8627 125.65 97.8138 126.601 98.9869 126.601Z" fill="var(--fill-0, #5D0F08)"/>
<path id="Vector_329" d="M107.484 126.601C108.657 126.601 109.608 125.65 109.608 124.477C109.608 123.304 108.657 122.353 107.484 122.353C106.311 122.353 105.359 123.304 105.359 124.477C105.359 125.65 106.311 126.601 107.484 126.601Z" fill="var(--fill-0, #5D0F08)"/>
<path id="Vector_330" d="M111.732 126.601C112.905 126.601 113.856 125.65 113.856 124.477C113.856 123.304 112.905 122.353 111.732 122.353C110.559 122.353 109.608 123.304 109.608 124.477C109.608 125.65 110.559 126.601 111.732 126.601Z" fill="var(--fill-0, #5D0F08)"/>
<path id="Vector_331" d="M115.98 126.601C117.154 126.601 118.105 125.65 118.105 124.477C118.105 123.304 117.154 122.353 115.98 122.353C114.807 122.353 113.856 123.304 113.856 124.477C113.856 125.65 114.807 126.601 115.98 126.601Z" fill="var(--fill-0, #5D0F08)"/>
<path id="Vector_332" d="M25.7026 3.39869H10.8333C6.72729 3.39869 3.39869 6.72729 3.39869 10.8333V25.7026C3.39869 29.8087 6.72729 33.1373 10.8333 33.1373H25.7026C29.8087 33.1373 33.1373 29.8087 33.1373 25.7026V10.8333C33.1373 6.72729 29.8087 3.39869 25.7026 3.39869Z" fill="var(--fill-0, #5D0F08)"/>
<path id="Vector_333" d="M23.5784 7.64706H12.9575C10.0246 7.64706 7.64706 10.0246 7.64706 12.9575V23.5784C7.64706 26.5113 10.0246 28.8889 12.9575 28.8889H23.5784C26.5113 28.8889 28.8889 26.5113 28.8889 23.5784V12.9575C28.8889 10.0246 26.5113 7.64706 23.5784 7.64706Z" fill="var(--fill-0, white)"/>
<path id="Vector_334" d="M21.4542 11.8954H15.0817C13.322 11.8954 11.8954 13.322 11.8954 15.0817V21.4542C11.8954 23.214 13.322 24.6405 15.0817 24.6405H21.4542C23.214 24.6405 24.6405 23.214 24.6405 21.4542V15.0817C24.6405 13.322 23.214 11.8954 21.4542 11.8954Z" fill="var(--fill-0, #5D0F08)"/>
<path id="Vector_335" d="M119.167 3.39869H104.297C100.191 3.39869 96.8627 6.72729 96.8627 10.8333V25.7026C96.8627 29.8087 100.191 33.1373 104.297 33.1373H119.167C123.273 33.1373 126.601 29.8087 126.601 25.7026V10.8333C126.601 6.72729 123.273 3.39869 119.167 3.39869Z" fill="var(--fill-0, #5D0F08)"/>
<path id="Vector_336" d="M117.042 7.64706H106.422C103.489 7.64706 101.111 10.0246 101.111 12.9575V23.5784C101.111 26.5113 103.489 28.8889 106.422 28.8889H117.042C119.975 28.8889 122.353 26.5113 122.353 23.5784V12.9575C122.353 10.0246 119.975 7.64706 117.042 7.64706Z" fill="var(--fill-0, white)"/>
<path id="Vector_337" d="M114.918 11.8954H108.546C106.786 11.8954 105.359 13.322 105.359 15.0817V21.4542C105.359 23.214 106.786 24.6405 108.546 24.6405H114.918C116.678 24.6405 118.105 23.214 118.105 21.4542V15.0817C118.105 13.322 116.678 11.8954 114.918 11.8954Z" fill="var(--fill-0, #5D0F08)"/>
<path id="Vector_338" d="M25.7026 96.8627H10.8333C6.72729 96.8627 3.39869 100.191 3.39869 104.297V119.167C3.39869 123.273 6.72729 126.601 10.8333 126.601H25.7026C29.8087 126.601 33.1373 123.273 33.1373 119.167V104.297C33.1373 100.191 29.8087 96.8627 25.7026 96.8627Z" fill="var(--fill-0, #5D0F08)"/>
<path id="Vector_339" d="M23.5784 101.111H12.9575C10.0246 101.111 7.64706 103.489 7.64706 106.422V117.042C7.64706 119.975 10.0246 122.353 12.9575 122.353H23.5784C26.5113 122.353 28.8889 119.975 28.8889 117.042V106.422C28.8889 103.489 26.5113 101.111 23.5784 101.111Z" fill="var(--fill-0, white)"/>
<path id="Vector_340" d="M21.4542 105.359H15.0817C13.322 105.359 11.8954 106.786 11.8954 108.546V114.918C11.8954 116.678 13.322 118.105 15.0817 118.105H21.4542C23.214 118.105 24.6405 116.678 24.6405 114.918V108.546C24.6405 106.786 23.214 105.359 21.4542 105.359Z" fill="var(--fill-0, #5D0F08)"/>
</g>
</svg>
